<?xml version="1.0" encoding="utf-8"?>
<!-- Generator: Adobe Illustrator 24.1.2, SVG Export Plug-In . SVG Version: 6.00 Build 0)  -->
<svg version="1.1" id="图层_1" xmlns="http://www.w3.org/2000/svg" xmlns:xlink="http://www.w3.org/1999/xlink" x="0px" y="0px"
	 viewBox="0 0 439.14 3371.39" style="enable-background:new 0 0 439.14 3371.39;" xml:space="preserve">
<style type="text/css">
	.st0{fill-rule:evenodd;clip-rule:evenodd;fill:#96B7DF;}
	.st1{fill:#96B7DF;}
</style>
<g>
	<g>
		<g>
			<g>
				<g>
					<path class="st0" d="M255.35,363.83c8.05-1.22,10.78,0.96,14.05,6.16c2.86,5.26,4.36,10.74,7.04,10.75
						c2.27,0.15,5.82-4.82,4.57-14.29c-0.65-4.57-3.54-11.04-10.09-14.62c-6.5-3.62-14.43-2.8-19.95,0.02
						c-11.42,6.21-15.07,13.86-18.28,20.68c-2.82,7.15-4.62,14.66-4.44,25.43c1.36-10.71,5-17.29,9.2-22.62
						C241.79,370.33,247.34,365.54,255.35,363.83z"/>
				</g>
				<path class="st1" d="M323.48,96.85c-23.47,0.94-41.41,16.8-43.1,41.04c-1.64,23.47,22.69,49.84,42.48,31.76
					c11.93-10.85-10.83-26.64-15.38-9.74c-1.6,9.48-10.92,5.23-14.52,0.04c-4.12-5.95-4.83-13.98-3.86-20.95
					c4.11-31.9,46.96-37.49,65.53-14.4c22.27,27.75,5.19,64.77-16.34,86.29c-25.7,25.62-55.49,46.9-80.14,73.52
					c-27.9,30.1-30.99,71.24-30.97,110.59c0.67,0.03,1.32,0.05,1.99,0.08c2.62-25.99,6.04-53.64,17.31-77.52
					c10.17-21.49,32.01-36.55,50.26-50.81c39.01-30.43,86.8-71.58,86.52-107.99C382.97,122.42,358.47,95.49,323.48,96.85z"/>
				<path class="st1" d="M406.16,327.05c-5.37,10.34-15.89,16.44-27.09,18.65c-9.5,1.67-18.79-2.68-8.26-11.25
					c4.9-5.42-1.89-18.66-8.62-12.88c-6.77,6.11-4,20.95,2.53,26.45c20.39,17.1,51.75-12.4,55.13-31.57
					c11.42-64.78-79.72-60.16-116.67-43.42c-46.67,21.2-80.36,75.37-75.61,126.82c6.19-11.4,5.68-32.76,12.05-47
					c7.43-16.66,18.34-31.72,31.52-44.31c28.37-27.04,63.73-37.23,95.28-32.28C397.97,281.24,419.22,301.97,406.16,327.05z"/>
			</g>
			<g>
				<path class="st1" d="M414.5,215.81c-9.22,17.38-46.56,25.95-53.37,25.66l-0.16-1.63c13.03-3.76,21.7-12.62,29.77-22.63
					c2.01-2.59,3.9-5.24,5.83-8.04c1.82-2.45,3.22-4.4,4.91-6.25c3.27-3.69,8.05-12.91,8.63-14.49
					C410.68,186.82,423.73,198.4,414.5,215.81z"/>
				<path class="st1" d="M413.18,248.8l-5.42,0.79c-2.07,0.44-5.46,0.24-9.08-0.36l-9.59-2.61c-5.9-1.66-11.26-2.61-17.34-2.71
					c-5.99-0.28-15.61,0.99-18.56,0.58c-2.94-0.44,11.21-6.77,17.59-8.69c6.3-1.69,14.04-5.86,29.72-4.95
					c15.67,0.88,17.35,4.99,20.62,9.57c3.46,4.63,0.16,14.5-1.02,13.07C418.89,251.98,414.49,248.4,413.18,248.8z"/>
			</g>
			<g>
				<path class="st0" d="M397.17,81.39c4.15-4.47,20.82-9.41,16.42-16.61c-5.83-9.43-20.09-6.04-26.11,1
					c-10.41,12.16-5.53,32.53-4.15,47.12C385.46,100.87,389.73,91.04,397.17,81.39C399.17,79.27,389.35,91.52,397.17,81.39z"/>
				<path class="st0" d="M379.6,47.74c-4.52-14.12-16.84-25.31-32.45-25.39c-12.34,0-31.02,13.9-15.8,19.42
					c16,5.87,22.88,6.69,32.95,22.54c9.54,15.05,15.3,32.31,17.65,49.96C383.38,92.35,385.86,69.11,379.6,47.74
					C377.33,40.63,383.94,62.6,379.6,47.74z"/>
				<path class="st1" d="M399.63,15.84c0.09,12.52-5.1,24.19-11.64,24.24c-6.51,0.05-11.9-11.55-11.99-24.07
					C375.9,3.53,381.18,0.04,387.68,0C394.22-0.04,399.53,3.36,399.63,15.84z"/>
			</g>
			<g>
				<g>
					<path class="st0" d="M203.64,375.61c4.27,5.26,8,11.77,9.52,22.47c0.05-10.77-1.91-18.25-4.82-25.37
						c-3.31-6.76-7.08-14.35-18.58-20.39c-5.58-2.74-13.51-3.45-19.97,0.27c-6.5,3.67-9.27,10.19-9.83,14.78
						c-1.12,9.48,2.5,14.4,4.76,14.21c2.69-0.05,4.1-5.55,6.88-10.87c3.19-5.24,5.89-7.46,13.95-6.36
						C193.6,365.95,199.24,370.66,203.64,375.61z"/>
				</g>
				<path class="st1" d="M113.38,98.45c23.49,0.58,41.67,16.18,43.71,40.39c2.02,23.43-21.93,50.18-41.96,32.4
					c-12.13-10.67,10.39-26.8,15.2-9.98c1.75,9.47,11,5.08,14.54-0.18c4.03-6.01,4.61-14.06,3.54-21
					c-4.61-31.82-47.55-36.78-65.72-13.39c-21.88,28.08-4.22,64.84,17.64,86.03c26.08,25.24,56.19,46.03,81.26,72.28
					c28.34,29.67,32.08,70.76,32.62,110.11c-0.65,0.03-1.3,0.07-1.96,0.1c-3-25.94-6.86-53.54-18.52-77.24
					c-10.5-21.33-32.56-36.06-50.98-50.04c-39.49-29.83-87.89-70.25-88.18-106.64C54.28,124.92,78.38,97.61,113.38,98.45z"/>
				<path class="st1" d="M34.21,329.88c5.51,10.27,16.13,16.21,27.37,18.22c9.53,1.54,18.76-2.94,8.1-11.36
					c-5-5.35,1.57-18.68,8.41-13.01c6.87,6,4.32,20.88-2.13,26.49c-20.12,17.41-51.93-11.63-55.6-30.73
					c-12.42-64.59,78.77-61.38,115.97-45.18c47.02,20.47,81.49,74.12,77.55,125.64c-6.34-11.3-6.19-32.68-12.77-46.81
					c-7.67-16.54-18.81-31.44-32.18-43.83c-28.76-26.6-64.28-36.26-95.76-30.83C41.69,283.96,20.75,305,34.21,329.88z"/>
			</g>
			<g>
				<path class="st1" d="M24.18,218.78c9.49,17.25,46.94,25.23,53.74,24.85l0.15-1.64c-13.09-3.55-21.91-12.29-30.12-22.17
					c-2.04-2.57-3.98-5.18-5.95-7.95c-1.88-2.42-3.29-4.35-5.02-6.17c-3.32-3.66-8.23-12.8-8.84-14.37
					C27.55,189.74,14.66,201.51,24.18,218.78z"/>
				<path class="st1" d="M25.99,251.75l5.43,0.69c2.09,0.42,5.46,0.17,9.09-0.5l9.55-2.75c5.88-1.76,11.22-2.8,17.29-2.97
					c5.99-0.38,15.62,0.75,18.58,0.29c2.93-0.49-11.32-6.61-17.72-8.43c-6.34-1.59-14.13-5.64-29.79-4.5
					c-15.67,1.12-17.3,5.25-20.47,9.88c-3.4,4.69,0.04,14.5,1.21,13.05C20.34,255.01,24.68,251.37,25.99,251.75z"/>
			</g>
			<g>
				<path class="st0" d="M39.47,84.12c7.56,9.52,11.99,19.29,14.3,31.28c1.16-14.59,5.72-35.04-4.85-47.04
					c-6.13-6.95-20.46-10.11-26.13-0.6C18.5,75.03,35.25,79.7,39.47,84.12C47.42,94.13,37.43,82.03,39.47,84.12z"/>
				<path class="st0" d="M56.51,50.2c-5.94,21.47-3.11,44.67-1.33,66.56c2.08-17.69,7.57-35.01,16.89-50.21
					c9.8-16,16.71-16.94,32.6-23.04c15.14-5.76-3.78-19.39-16.08-19.2C72.96,24.64,60.83,36,56.51,50.2
					C52.39,65.11,58.67,43.05,56.51,50.2z"/>
				<path class="st1" d="M60.55,18.42c0.09,12.51-5.11,24.19-11.65,24.23c-6.52,0.07-11.89-11.54-11.99-24.06
					C36.82,6.12,42.08,2.63,48.59,2.58C55.13,2.53,60.45,5.94,60.55,18.42z"/>
			</g>
			<g>
				<path class="st0" d="M238.46,46.51c5.18-4.28,28.64-11.99,29.97-18.36c2.34-9.48-19.64-7.77-23.86-6.33
					c-26.8,9.13-28.5,42.35-27.48,66.08C219.27,72.12,225.96,56.84,238.46,46.51C245.03,41.11,231.62,52.14,238.46,46.51z"/>
				<path class="st0" d="M249.87,93.5c12.25-14.58,14.66-12.46,31.63-12.63c7.46-0.06,4.81-9.39,2.64-13.19
					c-6.29-10.93-20.23-14.37-31.48-9.74c-33.12,13.7-36.03,68.26-35.03,97.9C220.93,132.9,235.29,111.41,249.87,93.5
					C253.96,88.64,241.45,103.84,249.87,93.5z"/>
				<path class="st0" d="M195.3,46.84c12.66,10.14,19.57,25.31,22,41.05c0.65-23.73-1.56-56.94-28.51-65.66
					c-4.2-1.37-26.22-2.74-23.75,6.69C166.49,35.28,190.03,42.63,195.3,46.84C202.22,52.38,188.65,41.55,195.3,46.84z"/>
				<path class="st0" d="M184.59,94c14.87,17.69,29.37,38.96,33.04,61.85c0.54-29.65-3.03-84.16-36.36-97.35
					c-11.34-4.47-25.2-0.82-31.33,10.19c-2.11,3.86-4.61,13.22,2.84,13.17C169.75,81.77,172.11,79.61,184.59,94
					C193.17,104.21,180.42,89.21,184.59,94z"/>
			</g>
			<g>
				<path class="st0" d="M356.2,452.73c4.28,5.19,11.99,28.65,18.38,29.97c9.47,2.34,7.76-19.63,6.34-23.84
					c-9.15-26.8-42.4-28.48-66.12-27.5C330.59,433.54,345.85,440.24,356.2,452.73C361.62,459.31,350.56,445.92,356.2,452.73z"/>
				<path class="st0" d="M309.22,464.17c14.56,12.27,12.42,14.64,12.59,31.61c0.06,7.46,9.42,4.82,13.23,2.66
					c10.91-6.31,14.34-20.22,9.68-31.46c-13.66-33.15-68.23-36.09-97.85-35.09C269.84,435.23,291.31,449.59,309.22,464.17
					C314.07,468.24,298.89,455.73,309.22,464.17z"/>
				<path class="st0" d="M355.87,409.58c-10.16,12.65-25.32,19.56-41.08,21.99c23.72,0.65,56.95-1.55,65.69-28.47
					c1.36-4.22,2.73-26.22-6.7-23.77C367.43,380.78,360.08,404.32,355.87,409.58C350.33,416.5,361.19,402.94,355.87,409.58z"/>
				<path class="st0" d="M308.73,398.89c-17.69,14.86-38.94,29.33-61.85,32.99c29.63,0.55,84.14-2.97,97.3-36.33
					c4.48-11.35,0.84-25.19-10.16-31.31c-3.84-2.15-13.25-4.61-13.19,2.8C320.93,384.05,323.1,386.41,308.73,398.89
					C298.52,407.47,313.51,394.71,308.73,398.89z"/>
			</g>
			<g>
				<path class="st0" d="M82.38,454.82c10.15-12.66,25.29-19.59,41.03-21.99c-23.72-0.63-56.92,1.56-65.68,28.5
					c-1.35,4.22-2.72,26.21,6.73,23.73C70.82,483.65,78.19,460.08,82.38,454.82C87.93,447.93,77.07,461.48,82.38,454.82z"/>
				<path class="st0" d="M129.53,465.54c17.66-14.86,38.93-29.55,61.83-33.22c-29.63-0.55-84.16,3.21-97.32,36.57
					c-4.49,11.31-0.84,25.17,10.19,31.3c3.85,2.11,13.23,4.61,13.18-2.86C117.3,480.38,115.16,478.02,129.53,465.54
					C139.73,456.95,124.73,469.68,129.53,465.54z"/>
				<path class="st0" d="M82.05,411.67c-4.26-5.19-12.01-28.63-18.37-29.98c-9.48-2.31-7.78,19.66-6.36,23.88
					c9.16,26.79,42.4,28.48,66.1,27.47C107.64,430.84,92.39,424.16,82.05,411.67C76.64,405.12,87.7,418.51,82.05,411.67z"/>
				<path class="st0" d="M129.03,400.26c-14.56-12.27-12.45-14.65-12.6-31.65c-0.06-7.43-9.42-4.82-13.22-2.62
					c-10.92,6.28-14.37,20.19-9.72,31.46c13.67,33.15,68.26,35.85,97.87,34.86C168.42,429.01,146.94,414.84,129.03,400.26
					C124.18,396.15,139.36,408.68,129.03,400.26z"/>
			</g>
			<g>
				<path class="st1" d="M271.45,253.7c-7.58,6.07-15.26,10.72-24.95,12.66c-1.82,0.38-23.8,3.06-23.92,2.83
					c-3.87-9.48,26.49-27.68,37.81-39.24c11.32-11.53,26.34-47.21,30.29-44.73C294.61,187.7,290.38,238.54,271.45,253.7z"/>
				<path class="st1" d="M163.36,254.52c7.69,5.96,15.45,10.49,25.13,12.29c1.85,0.36,23.9,2.7,23.98,2.46
					c3.72-9.53-26.93-27.28-38.41-38.66c-11.48-11.36-27.07-46.79-30.96-44.27C139.24,188.89,144.24,239.65,163.36,254.52z"/>
				<path class="st1" d="M217.67,307.15c-1.28-10.64-2.02-21.24-2.82-31.91c-0.49-5.26-0.3-8.3-3.11-13.4
					c-8.64-7.73-13.67-15.5-17.06-23.29c-4.1-8.57-5.64-17.23-5.78-25.86c-0.04-8.59,1.39-17.24,5.31-25.89
					c3.62-8.66,13.69-21.28,17.51-24.43c3.08-2.47,6.89-2.5,10-0.07c3.89,3.08,14.14,15.54,17.88,24.15
					c4.05,8.6,5.62,17.23,5.72,25.81c-0.01,8.63-1.47,17.31-5.4,25.95c-3.29,7.85-8.18,15.69-16.69,23.55
					c-2.75,5.13-2.53,8.18-2.91,13.44C219.65,285.88,218.78,296.49,217.67,307.15z"/>
			</g>
			<path class="st0" d="M239.51,428.59c0.08,11.35-9.04,20.62-20.38,20.71c-11.35,0.08-20.62-9.04-20.7-20.4
				c-0.08-11.37,9.04-20.61,20.38-20.7C230.15,408.13,239.42,417.23,239.51,428.59z"/>
			<path class="st1" d="M299.36,324.79c-6.94,7.08-16.39,10.73-20.09,7.07c-3.69-3.62-0.2-13.14,6.74-20.19
				c6.95-7.08,11.86-6.07,15.52-2.42C305.22,312.88,306.33,317.71,299.36,324.79z"/>
			<path class="st1" d="M157.06,314.19c7.03,6.95,10.68,16.43,7.05,20.09c-3.65,3.7-13.15,0.21-20.2-6.73
				c-7.08-6.94-6.06-11.87-2.42-15.55C145.11,308.29,149.99,307.22,157.06,314.19z"/>
		</g>
		<g>
			<g>
				<g>
					<path class="st0" d="M237.45,482.35c-4.2-5.33-7.84-11.91-9.2-22.62c-0.18,10.77,1.62,18.28,4.44,25.43
						c3.21,6.82,6.85,14.47,18.28,20.68c5.52,2.82,13.45,3.64,19.95,0.02c6.55-3.58,9.44-10.05,10.09-14.62
						c1.25-9.46-2.29-14.44-4.57-14.29c-2.68,0-4.18,5.48-7.04,10.75c-3.27,5.2-5.99,7.38-14.05,6.16
						C247.34,492.15,241.79,487.36,237.45,482.35z"/>
				</g>
				<path class="st1" d="M323.48,760.84c-23.47-0.94-41.41-16.8-43.1-41.04c-1.64-23.47,22.69-49.84,42.48-31.76
					c11.93,10.85-10.83,26.64-15.38,9.74c-1.6-9.48-10.92-5.23-14.52-0.04c-4.12,5.95-4.83,13.98-3.86,20.95
					c4.11,31.9,46.96,37.49,65.53,14.4c22.27-27.75,5.19-64.77-16.34-86.29c-25.7-25.62-55.49-46.9-80.14-73.52
					c-27.9-30.1-30.99-71.24-30.97-110.59c0.67-0.03,1.32-0.05,1.99-0.08c2.62,25.99,6.04,53.64,17.31,77.52
					c10.17,21.49,32.01,36.55,50.26,50.81c39.01,30.43,86.8,71.58,86.52,107.99C382.97,735.27,358.47,762.2,323.48,760.84z"/>
				<path class="st1" d="M406.16,530.63c-5.37-10.34-15.89-16.44-27.09-18.65c-9.5-1.67-18.79,2.68-8.26,11.25
					c4.9,5.42-1.89,18.66-8.62,12.88c-6.77-6.11-4-20.95,2.53-26.45c20.39-17.1,51.75,12.4,55.13,31.57
					c11.42,64.78-79.72,60.16-116.67,43.42c-46.67-21.2-80.36-75.37-75.61-126.82c6.19,11.4,5.68,32.76,12.05,47
					c7.43,16.66,18.34,31.72,31.52,44.31c28.37,27.04,63.73,37.23,95.28,32.28C397.97,576.45,419.22,555.72,406.16,530.63z"/>
			</g>
			<g>
				<path class="st1" d="M414.5,641.87c-9.22-17.38-46.56-25.95-53.37-25.66l-0.16,1.63c13.03,3.76,21.7,12.62,29.77,22.63
					c2.01,2.59,3.9,5.24,5.83,8.04c1.82,2.45,3.22,4.4,4.91,6.25c3.27,3.69,8.05,12.91,8.63,14.49
					C410.68,670.87,423.73,659.29,414.5,641.87z"/>
				<path class="st1" d="M413.18,608.89l-5.42-0.79c-2.07-0.44-5.46-0.24-9.08,0.36l-9.59,2.61c-5.9,1.66-11.26,2.61-17.34,2.71
					c-5.99,0.28-15.61-0.99-18.56-0.58c-2.94,0.44,11.21,6.77,17.59,8.69c6.3,1.69,14.04,5.86,29.72,4.95
					c15.67-0.88,17.35-4.99,20.62-9.57c3.46-4.63,0.16-14.5-1.02-13.07C418.89,605.71,414.49,609.29,413.18,608.89z"/>
			</g>
			<g>
				<path class="st0" d="M397.17,776.3c4.15,4.47,20.82,9.41,16.42,16.61c-5.83,9.43-20.09,6.04-26.11-1
					c-10.41-12.16-5.53-32.53-4.15-47.12C385.46,756.82,389.73,766.65,397.17,776.3C399.17,778.41,389.35,766.17,397.17,776.3z"/>
				<path class="st0" d="M379.6,809.94c-4.52,14.12-16.84,25.31-32.45,25.39c-12.34,0-31.02-13.9-15.8-19.42
					c16-5.87,22.88-6.69,32.95-22.54c9.54-15.05,15.3-32.31,17.65-49.96C383.38,765.34,385.86,788.58,379.6,809.94
					C377.33,817.06,383.94,795.09,379.6,809.94z"/>
				<path class="st1" d="M399.63,841.85c0.09-12.52-5.1-24.19-11.64-24.24c-6.51-0.05-11.9,11.55-11.99,24.07
					c-0.1,12.48,5.18,15.97,11.68,16.01C394.22,857.73,399.53,854.33,399.63,841.85z"/>
			</g>
			<g>
				<g>
					<path class="st0" d="M185.55,493.33c-8.06,1.1-10.76-1.12-13.95-6.36c-2.78-5.31-4.18-10.82-6.88-10.87
						c-2.26-0.19-5.88,4.73-4.76,14.21c0.57,4.59,3.34,11.11,9.83,14.78c6.45,3.71,14.39,3.01,19.97,0.27
						c11.5-6.03,15.27-13.62,18.58-20.39c2.9-7.12,4.87-14.6,4.82-25.37c-1.52,10.7-5.25,17.22-9.52,22.47
						C199.24,487.03,193.6,491.74,185.55,493.33z"/>
				</g>
				<path class="st1" d="M113.38,759.24c23.49-0.58,41.67-16.18,43.71-40.39c2.02-23.43-21.93-50.18-41.96-32.4
					c-12.13,10.67,10.39,26.8,15.2,9.98c1.75-9.47,11-5.08,14.54,0.18c4.03,6.01,4.61,14.06,3.54,21
					c-4.61,31.82-47.55,36.78-65.72,13.39c-21.88-28.08-4.22-64.84,17.64-86.03c26.08-25.24,56.19-46.03,81.26-72.28
					c28.34-29.67,32.08-70.76,32.62-110.11c-0.65-0.03-1.3-0.07-1.96-0.1c-3,25.94-6.86,53.54-18.52,77.24
					c-10.5,21.33-32.56,36.06-50.98,50.04c-39.49,29.83-87.89,70.25-88.18,106.64C54.28,732.76,78.38,760.07,113.38,759.24z"/>
				<path class="st1" d="M34.21,527.81c5.51-10.27,16.13-16.21,27.37-18.22c9.53-1.54,18.76,2.94,8.1,11.36
					c-5,5.35,1.57,18.68,8.41,13.01c6.87-6,4.32-20.88-2.13-26.49c-20.12-17.41-51.93,11.63-55.6,30.73
					c-12.42,64.59,78.77,61.38,115.97,45.18c47.02-20.47,81.49-74.12,77.55-125.64c-6.34,11.3-6.19,32.68-12.77,46.81
					c-7.67,16.54-18.81,31.44-32.18,43.83c-28.76,26.6-64.28,36.26-95.76,30.83C41.69,573.73,20.75,552.69,34.21,527.81z"/>
			</g>
			<g>
				<path class="st1" d="M24.18,638.91c9.49-17.25,46.94-25.23,53.74-24.85l0.15,1.64c-13.09,3.55-21.91,12.29-30.12,22.17
					c-2.04,2.57-3.98,5.18-5.95,7.95c-1.88,2.42-3.29,4.35-5.02,6.17c-3.32,3.66-8.23,12.8-8.84,14.37
					C27.55,667.95,14.66,656.18,24.18,638.91z"/>
				<path class="st1" d="M25.99,605.94l5.43-0.69c2.09-0.42,5.46-0.17,9.09,0.5l9.55,2.75c5.88,1.76,11.22,2.8,17.29,2.97
					c5.99,0.38,15.62-0.75,18.58-0.29c2.93,0.49-11.32,6.61-17.72,8.43c-6.34,1.59-14.13,5.64-29.79,4.5
					c-15.67-1.12-17.3-5.25-20.47-9.88c-3.4-4.69,0.04-14.5,1.21-13.05C20.34,602.68,24.68,606.31,25.99,605.94z"/>
			</g>
			<g>
				<path class="st0" d="M39.47,773.57c7.56-9.52,11.99-19.29,14.3-31.28c1.16,14.59,5.72,35.04-4.85,47.04
					c-6.13,6.95-20.46,10.11-26.13,0.6C18.5,782.66,35.25,777.99,39.47,773.57C47.42,763.55,37.43,775.66,39.47,773.57z"/>
				<path class="st0" d="M56.51,807.49c-5.94-21.47-3.11-44.67-1.33-66.56c2.08,17.69,7.57,35.01,16.89,50.21
					c9.8,16,16.71,16.94,32.6,23.04c15.14,5.76-3.78,19.39-16.08,19.2C72.96,833.04,60.83,821.68,56.51,807.49
					C52.39,792.57,58.67,814.64,56.51,807.49z"/>
				<path class="st1" d="M60.55,839.27c0.09-12.51-5.11-24.19-11.65-24.23c-6.52-0.07-11.89,11.54-11.99,24.06
					c-0.09,12.48,5.16,15.97,11.68,16.01C55.13,855.16,60.45,851.74,60.55,839.27z"/>
			</g>
			<g>
				<path class="st0" d="M238.46,811.18c5.18,4.28,28.64,11.99,29.97,18.36c2.34,9.48-19.64,7.77-23.86,6.33
					c-26.8-9.13-28.5-42.35-27.48-66.08C219.27,785.57,225.96,800.85,238.46,811.18C245.03,816.58,231.62,805.55,238.46,811.18z"/>
				<path class="st0" d="M249.87,764.19c12.25,14.58,14.66,12.46,31.63,12.63c7.46,0.06,4.81,9.39,2.64,13.19
					c-6.29,10.93-20.23,14.37-31.48,9.74c-33.12-13.7-36.03-68.26-35.03-97.9C220.93,724.79,235.29,746.28,249.87,764.19
					C253.96,769.04,241.45,753.85,249.87,764.19z"/>
				<path class="st0" d="M195.3,810.85c12.66-10.14,19.57-25.31,22-41.05c0.65,23.73-1.56,56.94-28.51,65.66
					c-4.2,1.37-26.22,2.74-23.75-6.69C166.49,822.41,190.03,815.06,195.3,810.85C202.22,805.31,188.65,816.14,195.3,810.85z"/>
				<path class="st0" d="M184.59,763.69c14.87-17.69,29.37-38.96,33.04-61.85c0.54,29.65-3.03,84.16-36.36,97.35
					c-11.34,4.47-25.2,0.82-31.33-10.19c-2.11-3.86-4.61-13.22,2.84-13.17C169.75,775.92,172.11,778.08,184.59,763.69
					C193.17,753.48,180.42,768.48,184.59,763.69z"/>
			</g>
			<g>
				<path class="st1" d="M271.45,603.98c-7.58-6.07-15.26-10.72-24.95-12.66c-1.82-0.38-23.8-3.06-23.92-2.83
					c-3.87,9.48,26.49,27.68,37.81,39.24c11.32,11.53,26.34,47.21,30.29,44.73C294.61,669.99,290.38,619.15,271.45,603.98z"/>
				<path class="st1" d="M163.36,603.16c7.69-5.96,15.45-10.49,25.13-12.29c1.85-0.36,23.9-2.7,23.98-2.46
					c3.72,9.53-26.93,27.28-38.41,38.66c-11.48,11.36-27.07,46.79-30.96,44.27C139.24,668.8,144.24,618.04,163.36,603.16z"/>
				<path class="st1" d="M217.67,550.53c-1.28,10.64-2.02,21.24-2.82,31.91c-0.49,5.26-0.3,8.3-3.11,13.4
					c-8.64,7.73-13.67,15.5-17.06,23.29c-4.1,8.57-5.64,17.23-5.78,25.86c-0.04,8.59,1.39,17.24,5.31,25.89
					c3.62,8.66,13.69,21.28,17.51,24.43c3.08,2.47,6.89,2.5,10,0.07c3.89-3.08,14.14-15.54,17.88-24.15
					c4.05-8.6,5.62-17.23,5.72-25.81c-0.01-8.63-1.47-17.31-5.4-25.95c-3.29-7.85-8.18-15.69-16.69-23.55
					c-2.75-5.13-2.53-8.18-2.91-13.44C219.65,571.81,218.78,561.2,217.67,550.53z"/>
			</g>
			<path class="st1" d="M157.06,543.5c7.03-6.95,10.68-16.43,7.05-20.09c-3.65-3.7-13.15-0.21-20.2,6.73
				c-7.08,6.94-6.06,11.87-2.42,15.55C145.11,549.4,149.99,550.47,157.06,543.5z"/>
		</g>
		<g>
			<g>
				<path class="st0" d="M27.65,1000.68c-10.56-2.64-8.77,21.96-7.22,26.64c10.1,30.02,47.28,32.09,73.8,31.09
					c-17.64-2.52-34.69-10.08-46.17-24.09C42.04,1026.92,34.82,1002.22,27.65,1000.68z"/>
				<path class="st0" d="M86.7,986.37c-0.03-8.34-10.49-5.44-14.78-3.01c-12.22,6.95-16.13,22.49-11.01,35.11
					c15.13,37.13,76.11,40.66,109.23,39.7c-25.64-3.84-49.57-19.98-69.49-36.38C95.22,1017.17,86.81,1005.34,86.7,986.37z"/>
				<path class="st0" d="M94.23,1058.18c-26.53-0.84-63.69,1.46-73.62,31.5c-1.51,4.74-3.15,29.32,7.39,26.61
					c7.15-1.59,15.48-27.88,20.21-33.74C54.43,1074.85,76.6,1060.79,94.23,1058.18z"/>
			</g>
			<g>
				<path class="st0" d="M344.92,1056.13c26.53,0.84,63.67-1.44,73.58-31.52c1.55-4.71,3.19-29.3-7.37-26.57
					c-7.13,1.55-15.48,27.86-20.22,33.71C384.72,1039.47,362.55,1053.52,344.92,1056.13z"/>
				<path class="st0" d="M411.47,1113.66c10.58,2.63,8.8-21.97,7.22-26.66c-10.09-30.02-47.24-32.09-73.76-31.09
					c17.63,2.53,34.64,10.09,46.13,24.09C397.11,1087.37,404.34,1112.08,411.47,1113.66z"/>
				<path class="st0" d="M352.42,1127.95c0.02,8.33,10.5,5.42,14.78,3.01c12.25-6.97,16.12-22.5,11.04-35.14
					c-15.13-37.09-76.14-40.44-109.25-39.47c25.64,3.8,49.6,19.76,69.57,36.19C343.9,1097.12,352.31,1108.97,352.42,1127.95z"/>
			</g>
			<g>
				<path class="st0" d="M75.64,1196.1c-7.52,7.89,14.75,18.48,19.58,19.45c31.08,6.05,51.27-25.25,63.51-48.8
					c-10.94,14.11-25.9,25.17-43.75,28.24C105.58,1196.57,80.5,1190.65,75.64,1196.1z"/>
				<path class="st0" d="M92.39,1137.69c-7.23-4.11-9.92,6.42-9.93,11.34c0,14.08,11.62,25.18,25.11,26.92
					c39.73,5.22,72.92-46.06,88.48-75.31c-16.01,20.39-41.9,33.21-66,42.42C123.36,1145.49,108.91,1146.97,92.39,1137.69z"/>
				<path class="st0" d="M158.55,1166.65c-13.89,22.66-30.24,56.08-8.99,79.56c3.31,3.68,23.86,17.22,26.74,6.73
					c2.15-7.01-16.57-27.23-19.34-34.24C153.32,1209.48,152.08,1183.26,158.55,1166.65z"/>
			</g>
			<g>
				<path class="st0" d="M280.63,947.71c13.83-22.69,30.22-56.11,8.99-79.57c-3.34-3.67-23.89-17.24-26.77-6.73
					c-2.13,6.97,16.58,27.22,19.33,34.25C285.8,904.86,287.08,931.1,280.63,947.71z"/>
				<path class="st0" d="M363.53,918.26c7.5-7.9-14.74-18.5-19.6-19.46c-31.08-6.05-51.3,25.24-63.49,48.82
					c10.89-14.12,25.88-25.19,43.74-28.25C333.61,917.79,358.62,923.68,363.53,918.26z"/>
				<path class="st0" d="M346.77,976.68c7.26,4.08,9.95-6.45,9.93-11.37c0.04-14.06-11.57-25.17-25.12-26.93
					c-39.7-5.21-72.75,46.17-88.28,75.42c16.01-20.39,41.71-33.32,65.82-42.55C315.79,968.84,330.26,967.38,346.77,976.68z"/>
			</g>
			<g>
				<path class="st0" d="M267.3,1251.43c3.01,10.47,23.38-3.43,26.65-7.15c20.87-23.82,3.95-56.99-10.24-79.4
					c6.67,16.52,8.74,35.04,2.4,52.03C282.75,1225.83,265.05,1244.51,267.3,1251.43z"/>
				<path class="st0" d="M225.22,1207.57c-7.18,4.23,0.57,11.84,4.83,14.28c12.16,7.11,27.58,2.63,35.88-8.11
					c24.5-31.76-3.14-86.25-20.63-114.36c9.58,24.09,7.66,52.89,3.52,78.39C247.58,1184.73,241.56,1197.97,225.22,1207.57z"/>
				<path class="st0" d="M283.51,1165c12.61,23.36,33.28,54.3,64.25,47.75c4.85-1.03,26.93-12.01,19.29-19.77
					c-4.97-5.37-31.86,0.67-39.32-0.49C317.92,1190.98,294.66,1178.9,283.51,1165z"/>
			</g>
			<g>
				<path class="st0" d="M155.64,949.33c-12.65-23.34-33.29-54.3-64.24-47.76c-4.84,1.03-26.96,11.99-19.32,19.76
					c4.97,5.38,31.89-0.64,39.33,0.49C121.2,923.35,144.53,935.43,155.64,949.33z"/>
				<path class="st0" d="M171.86,862.9c-3.05-10.46-23.42,3.43-26.65,7.15c-20.87,23.81-3.96,56.99,10.23,79.39
					c-6.7-16.5-8.73-35.02-2.39-52C156.4,888.51,174.12,869.85,171.86,862.9z"/>
				<path class="st0" d="M213.96,906.74c7.19-4.21-0.62-11.85-4.84-14.29c-12.18-7.08-27.59-2.65-35.92,8.15
					c-24.46,31.74,3.35,86.14,20.82,114.27c-9.61-24.09-7.86-52.81-3.71-78.32C191.54,929.6,197.57,916.36,213.96,906.74z"/>
			</g>
			<path class="st0" d="M219.16,1079.12c-12.68,0.03-22.99-10.23-23.03-22.93c-0.04-12.66,10.21-22.98,22.89-23.02
				c12.68-0.04,23.01,10.23,23.05,22.89C242.1,1068.75,231.83,1079.08,219.16,1079.12z"/>
			<path class="st1" d="M403.19,962.25c-6.66,0.02-12.06-5.36-12.07-12c-0.03-6.66,5.34-12.06,12.01-12.08
				c6.64-0.02,12.04,5.35,12.08,12.01C415.23,956.82,409.85,962.23,403.19,962.25z"/>
			<path class="st1" d="M403.81,1169.41c-6.67,0.02-12.07-5.37-12.08-12.02c-0.03-6.64,5.35-12.02,12.01-12.05
				c6.65-0.02,12.04,5.34,12.08,11.99C415.83,1163.97,410.45,1169.38,403.81,1169.41z"/>
			<path class="st1" d="M49.93,963.28c-6.67,0.02-12.08-5.35-12.09-11.99c-0.02-6.66,5.35-12.06,12.02-12.08
				c6.61-0.03,12.06,5.35,12.08,12.01C61.97,957.85,56.54,963.26,49.93,963.28z"/>
			<path class="st1" d="M50.53,1170.43c-6.67,0.03-12.08-5.34-12.09-12c-0.02-6.65,5.36-12.03,12.02-12.05
				c6.61-0.02,12.07,5.33,12.08,11.98C62.57,1165.01,57.15,1170.41,50.53,1170.43z"/>
			<path class="st1" d="M321.37,888.56c-4.27,0.01-7.73-3.44-7.75-7.7c-0.01-4.29,3.44-7.76,7.71-7.77
				c4.25-0.01,7.74,3.44,7.75,7.73C329.1,885.08,325.64,888.55,321.37,888.56z"/>
			<path class="st1" d="M322.41,1241c-4.27,0.02-7.73-3.45-7.75-7.72c-0.01-4.28,3.43-7.74,7.7-7.75c4.25-0.01,7.74,3.42,7.75,7.71
				C330.14,1237.49,326.67,1240.98,322.41,1241z"/>
			<path class="st1" d="M117.67,889.16c-4.29,0.01-7.79-3.44-7.79-7.71c-0.02-4.28,3.44-7.76,7.73-7.77
				c4.25-0.01,7.74,3.44,7.77,7.73C125.39,885.67,121.9,889.14,117.67,889.16z"/>
			<path class="st1" d="M118.69,1241.59c-4.3,0.02-7.79-3.45-7.79-7.72c-0.01-4.27,3.45-7.73,7.74-7.75
				c4.25-0.01,7.75,3.42,7.77,7.71C126.41,1238.1,122.93,1241.58,118.69,1241.59z"/>
			<path class="st0" d="M86.14,1129.72c0.03,8.33-10.47,5.5-14.77,3.1c-12.27-6.86-16.25-22.43-11.22-35.04
				c14.89-37.23,75.86-41.11,108.99-40.35c-25.62,3.99-49.45,20.29-69.32,36.8C94.49,1098.85,86.12,1110.74,86.14,1129.72z"/>
			<path class="st0" d="M352.76,983.87c-0.02-8.33,10.51-5.48,14.79-3.09c12.26,6.89,16.25,22.41,11.18,35.07
				c-14.85,37.2-75.83,40.88-108.96,40.13c25.61-3.98,49.5-20.08,69.29-36.62C344.47,1014.76,352.8,1002.86,352.76,983.87z"/>
			<path class="st0" d="M90.03,978.38c-7.26,4.11-9.97-6.39-9.97-11.29c-0.11-14.07,11.41-25.23,24.87-27.06
				c39.73-5.45,73.27,45.62,88.91,74.79c-16.07-20.31-42.03-32.97-66.2-42.07C120.93,970.36,106.49,968.96,90.03,978.38z"/>
			<path class="st0" d="M348.02,1135.2c7.22-4.14,9.96,6.38,9.97,11.29c0.12,14.06-11.4,25.22-24.9,27.07
				c-39.71,5.43-73.04-45.74-88.75-74.91c16.09,20.31,41.93,33.09,66.07,42.16C317.06,1143.22,331.52,1144.58,348.02,1135.2z"/>
			<path class="st0" d="M222.87,905.89c-7.18-4.17,0.52-11.81,4.74-14.31c12.13-7.17,27.58-2.8,35.91,7.91
				c24.69,31.62-2.58,86.25-19.92,114.49c9.42-24.15,7.36-52.94,3.05-78.4C245.38,928.61,239.29,915.42,222.87,905.89z"/>
			<path class="st0" d="M216.51,1209.48c7.22,4.17-0.52,11.85-4.76,14.31c-12.12,7.17-27.52,2.81-35.92-7.92
				c-24.68-31.6,2.78-86.17,20.1-114.39c-9.43,24.13-7.51,52.85-3.22,78.34C194.01,1186.77,200.11,1199.98,216.51,1209.48z"/>
		</g>
	</g>
	<g>
		<g>
			<g>
				<g>
					<path class="st0" d="M255.35,1621.72c8.05-1.22,10.78,0.96,14.05,6.16c2.86,5.26,4.36,10.74,7.04,10.75
						c2.27,0.15,5.82-4.82,4.57-14.29c-0.65-4.57-3.54-11.04-10.09-14.62c-6.5-3.62-14.43-2.8-19.95,0.02
						c-11.42,6.21-15.07,13.86-18.28,20.68c-2.82,7.15-4.62,14.66-4.44,25.43c1.36-10.71,5-17.29,9.2-22.62
						C241.79,1628.22,247.34,1623.43,255.35,1621.72z"/>
				</g>
				<path class="st1" d="M323.48,1354.74c-23.47,0.94-41.41,16.8-43.1,41.04c-1.64,23.47,22.69,49.84,42.48,31.76
					c11.93-10.85-10.83-26.64-15.38-9.74c-1.6,9.48-10.92,5.23-14.52,0.04c-4.12-5.95-4.83-13.98-3.86-20.95
					c4.11-31.9,46.96-37.49,65.53-14.4c22.27,27.75,5.19,64.77-16.34,86.29c-25.7,25.62-55.49,46.9-80.14,73.52
					c-27.9,30.1-30.99,71.24-30.97,110.59c0.67,0.03,1.32,0.05,1.99,0.08c2.62-25.99,6.04-53.64,17.31-77.52
					c10.17-21.49,32.01-36.55,50.26-50.81c39.01-30.43,86.8-71.58,86.52-107.99C382.97,1380.31,358.47,1353.38,323.48,1354.74z"/>
				<path class="st1" d="M406.16,1584.94c-5.37,10.34-15.89,16.44-27.09,18.65c-9.5,1.67-18.79-2.68-8.26-11.25
					c4.9-5.42-1.89-18.66-8.62-12.88c-6.77,6.11-4,20.95,2.53,26.45c20.39,17.1,51.75-12.4,55.13-31.57
					c11.42-64.78-79.72-60.16-116.67-43.42c-46.67,21.2-80.36,75.37-75.61,126.82c6.19-11.4,5.68-32.76,12.05-47
					c7.43-16.66,18.34-31.72,31.52-44.31c28.37-27.04,63.73-37.23,95.28-32.28C397.97,1539.13,419.22,1559.85,406.16,1584.94z"/>
			</g>
			<g>
				<path class="st1" d="M414.5,1473.7c-9.22,17.38-46.56,25.95-53.37,25.66l-0.16-1.63c13.03-3.76,21.7-12.62,29.77-22.63
					c2.01-2.59,3.9-5.24,5.83-8.04c1.82-2.45,3.22-4.4,4.91-6.25c3.27-3.69,8.05-12.91,8.63-14.49
					C410.68,1444.71,423.73,1456.29,414.5,1473.7z"/>
				<path class="st1" d="M413.18,1506.68l-5.42,0.79c-2.07,0.44-5.46,0.24-9.08-0.36l-9.59-2.61c-5.9-1.66-11.26-2.61-17.34-2.71
					c-5.99-0.28-15.61,0.99-18.56,0.58c-2.94-0.44,11.21-6.77,17.59-8.69c6.3-1.69,14.04-5.86,29.72-4.95
					c15.67,0.88,17.35,4.99,20.62,9.57c3.46,4.63,0.16,14.5-1.02,13.07C418.89,1509.86,414.49,1506.28,413.18,1506.68z"/>
			</g>
			<g>
				<path class="st0" d="M397.17,1339.28c4.15-4.47,20.82-9.41,16.42-16.61c-5.83-9.43-20.09-6.04-26.11,1
					c-10.41,12.16-5.53,32.53-4.15,47.11C385.46,1358.75,389.73,1348.92,397.17,1339.28
					C399.17,1337.16,389.35,1349.41,397.17,1339.28z"/>
				<path class="st0" d="M379.6,1305.63c-4.52-14.12-16.84-25.31-32.45-25.39c-12.34,0-31.02,13.9-15.8,19.42
					c16,5.87,22.88,6.69,32.95,22.54c9.54,15.05,15.3,32.31,17.65,49.96C383.38,1350.24,385.86,1327,379.6,1305.63
					C377.33,1298.52,383.94,1320.49,379.6,1305.63z"/>
				<path class="st1" d="M399.63,1273.72c0.09,12.52-5.1,24.19-11.64,24.24c-6.51,0.05-11.9-11.55-11.99-24.07
					c-0.1-12.48,5.18-15.97,11.68-16.01C394.22,1257.84,399.53,1261.25,399.63,1273.72z"/>
			</g>
			<g>
				<g>
					<path class="st0" d="M203.64,1633.5c4.27,5.26,8,11.77,9.52,22.47c0.05-10.77-1.91-18.25-4.82-25.37
						c-3.31-6.76-7.08-14.35-18.58-20.39c-5.58-2.74-13.51-3.45-19.97,0.27c-6.5,3.67-9.27,10.19-9.83,14.78
						c-1.12,9.48,2.5,14.4,4.76,14.21c2.69-0.05,4.1-5.55,6.88-10.87c3.19-5.24,5.89-7.46,13.95-6.36
						C193.6,1623.84,199.24,1628.54,203.64,1633.5z"/>
				</g>
				<path class="st1" d="M113.38,1356.34c23.49,0.58,41.67,16.18,43.71,40.39c2.02,23.43-21.93,50.18-41.96,32.4
					c-12.13-10.67,10.39-26.8,15.2-9.98c1.75,9.47,11,5.08,14.54-0.18c4.03-6.01,4.61-14.06,3.54-21
					c-4.61-31.82-47.55-36.78-65.72-13.39c-21.88,28.08-4.22,64.84,17.64,86.03c26.08,25.24,56.19,46.03,81.26,72.28
					c28.34,29.67,32.08,70.76,32.62,110.11c-0.65,0.03-1.3,0.07-1.96,0.1c-3-25.94-6.86-53.54-18.52-77.24
					c-10.5-21.33-32.56-36.06-50.98-50.04c-39.49-29.83-87.89-70.25-88.18-106.64C54.28,1382.81,78.38,1355.5,113.38,1356.34z"/>
				<path class="st1" d="M34.21,1587.77c5.51,10.27,16.13,16.21,27.37,18.22c9.53,1.54,18.76-2.94,8.1-11.36
					c-5-5.35,1.57-18.68,8.41-13.01c6.87,6,4.32,20.88-2.13,26.49c-20.12,17.41-51.93-11.63-55.6-30.73
					c-12.42-64.59,78.77-61.38,115.97-45.18c47.02,20.47,81.49,74.12,77.55,125.64c-6.34-11.3-6.19-32.68-12.77-46.81
					c-7.67-16.54-18.81-31.44-32.18-43.83c-28.76-26.6-64.28-36.26-95.76-30.83C41.69,1541.85,20.75,1562.89,34.21,1587.77z"/>
			</g>
			<g>
				<path class="st1" d="M24.18,1476.67c9.49,17.26,46.94,25.23,53.74,24.85l0.15-1.64c-13.09-3.55-21.91-12.29-30.12-22.17
					c-2.04-2.57-3.98-5.18-5.95-7.95c-1.88-2.42-3.29-4.35-5.02-6.17c-3.32-3.66-8.23-12.8-8.84-14.37
					C27.55,1447.63,14.66,1459.39,24.18,1476.67z"/>
				<path class="st1" d="M25.99,1509.63l5.43,0.69c2.09,0.42,5.46,0.17,9.09-0.5l9.55-2.75c5.88-1.76,11.22-2.8,17.29-2.97
					c5.99-0.38,15.62,0.75,18.58,0.29c2.93-0.49-11.32-6.61-17.72-8.43c-6.34-1.59-14.13-5.64-29.79-4.5
					c-15.67,1.12-17.3,5.25-20.47,9.88c-3.4,4.69,0.04,14.5,1.21,13.05C20.34,1512.9,24.68,1509.26,25.99,1509.63z"/>
			</g>
			<g>
				<path class="st0" d="M39.47,1342.01c7.56,9.52,11.99,19.29,14.3,31.28c1.16-14.59,5.72-35.04-4.85-47.04
					c-6.13-6.95-20.46-10.11-26.13-0.6C18.5,1332.92,35.25,1337.59,39.47,1342.01C47.42,1352.02,37.43,1339.91,39.47,1342.01z"/>
				<path class="st0" d="M56.51,1308.08c-5.94,21.47-3.11,44.67-1.33,66.56c2.08-17.69,7.57-35.01,16.89-50.21
					c9.8-16,16.71-16.94,32.6-23.04c15.14-5.76-3.78-19.39-16.08-19.2C72.96,1282.53,60.83,1293.89,56.51,1308.08
					C52.39,1323,58.67,1300.94,56.51,1308.08z"/>
				<path class="st1" d="M60.55,1276.31c0.09,12.51-5.11,24.19-11.65,24.23c-6.52,0.07-11.89-11.54-11.99-24.06
					c-0.09-12.48,5.16-15.97,11.68-16.01C55.13,1260.42,60.45,1263.83,60.55,1276.31z"/>
			</g>
			<g>
				<path class="st0" d="M238.46,1304.39c5.18-4.28,28.64-11.99,29.97-18.36c2.34-9.48-19.64-7.77-23.86-6.33
					c-26.8,9.13-28.5,42.35-27.48,66.08C219.27,1330.01,225.96,1314.73,238.46,1304.39C245.03,1299,231.62,1310.03,238.46,1304.39z"
					/>
				<path class="st0" d="M249.87,1351.39c12.25-14.58,14.66-12.46,31.63-12.63c7.46-0.06,4.81-9.39,2.64-13.19
					c-6.29-10.93-20.23-14.37-31.48-9.74c-33.12,13.7-36.03,68.26-35.03,97.9C220.93,1390.79,235.29,1369.3,249.87,1351.39
					C253.96,1346.53,241.45,1361.72,249.87,1351.39z"/>
				<path class="st0" d="M195.3,1304.73c12.66,10.14,19.57,25.31,22,41.05c0.65-23.73-1.56-56.94-28.51-65.66
					c-4.2-1.37-26.22-2.74-23.75,6.69C166.49,1293.17,190.03,1300.52,195.3,1304.73C202.22,1310.27,188.65,1299.43,195.3,1304.73z"
					/>
				<path class="st0" d="M184.59,1351.88c14.87,17.69,29.37,38.96,33.04,61.85c0.54-29.65-3.03-84.16-36.36-97.35
					c-11.34-4.47-25.2-0.82-31.33,10.19c-2.11,3.86-4.61,13.22,2.84,13.17C169.75,1339.66,172.11,1337.5,184.59,1351.88
					C193.17,1362.09,180.42,1347.1,184.59,1351.88z"/>
			</g>
			<g>
				<path class="st0" d="M356.2,1710.62c4.28,5.19,11.99,28.65,18.38,29.97c9.47,2.34,7.76-19.63,6.34-23.84
					c-9.15-26.8-42.4-28.48-66.12-27.5C330.59,1691.43,345.85,1698.12,356.2,1710.62C361.62,1717.2,350.56,1703.81,356.2,1710.62z"
					/>
				<path class="st0" d="M309.22,1722.06c14.56,12.27,12.42,14.64,12.59,31.61c0.06,7.46,9.42,4.82,13.23,2.66
					c10.91-6.31,14.34-20.22,9.68-31.46c-13.66-33.15-68.23-36.09-97.85-35.09C269.84,1693.11,291.31,1707.48,309.22,1722.06
					C314.07,1726.13,298.89,1713.62,309.22,1722.06z"/>
				<path class="st0" d="M355.87,1667.47c-10.16,12.65-25.32,19.56-41.08,21.99c23.72,0.65,56.95-1.55,65.69-28.47
					c1.36-4.22,2.73-26.22-6.7-23.77C367.43,1638.67,360.08,1662.21,355.87,1667.47C350.33,1674.39,361.19,1660.83,355.87,1667.47z"
					/>
				<path class="st0" d="M308.73,1656.78c-17.69,14.86-38.94,29.33-61.85,32.99c29.63,0.55,84.14-2.97,97.3-36.33
					c4.48-11.35,0.84-25.19-10.16-31.31c-3.84-2.15-13.25-4.61-13.19,2.8C320.93,1641.94,323.1,1644.3,308.73,1656.78
					C298.52,1665.36,313.51,1652.59,308.73,1656.78z"/>
			</g>
			<g>
				<path class="st0" d="M82.38,1712.71c10.15-12.66,25.29-19.59,41.03-21.99c-23.72-0.63-56.92,1.56-65.68,28.5
					c-1.35,4.22-2.72,26.21,6.73,23.73C70.82,1741.53,78.19,1717.97,82.38,1712.71C87.93,1705.81,77.07,1719.36,82.38,1712.71z"/>
				<path class="st0" d="M129.53,1723.43c17.66-14.86,38.93-29.55,61.83-33.22c-29.63-0.55-84.16,3.21-97.32,36.57
					c-4.49,11.31-0.84,25.17,10.19,31.3c3.85,2.11,13.23,4.61,13.18-2.86C117.3,1738.27,115.16,1735.91,129.53,1723.43
					C139.73,1714.83,124.73,1727.57,129.53,1723.43z"/>
				<path class="st0" d="M82.05,1669.55c-4.26-5.19-12.01-28.63-18.37-29.98c-9.48-2.31-7.78,19.66-6.36,23.88
					c9.16,26.79,42.4,28.48,66.1,27.47C107.64,1688.72,92.39,1682.05,82.05,1669.55C76.64,1663.01,87.7,1676.4,82.05,1669.55z"/>
				<path class="st0" d="M129.03,1658.14c-14.56-12.27-12.45-14.65-12.6-31.65c-0.06-7.43-9.42-4.82-13.22-2.62
					c-10.92,6.28-14.37,20.19-9.72,31.46c13.67,33.15,68.26,35.85,97.87,34.86C168.42,1686.9,146.94,1672.73,129.03,1658.14
					C124.18,1654.04,139.36,1666.57,129.03,1658.14z"/>
			</g>
			<g>
				<path class="st1" d="M271.45,1511.59c-7.58,6.07-15.26,10.72-24.95,12.66c-1.82,0.38-23.8,3.06-23.92,2.83
					c-3.87-9.48,26.49-27.68,37.81-39.24c11.32-11.53,26.34-47.21,30.29-44.73C294.61,1445.59,290.38,1496.42,271.45,1511.59z"/>
				<path class="st1" d="M163.36,1512.41c7.69,5.96,15.45,10.49,25.13,12.29c1.85,0.36,23.9,2.7,23.98,2.46
					c3.72-9.53-26.93-27.28-38.41-38.66c-11.48-11.36-27.07-46.79-30.96-44.27C139.24,1446.78,144.24,1497.54,163.36,1512.41z"/>
				<path class="st1" d="M217.67,1565.04c-1.28-10.64-2.02-21.24-2.82-31.91c-0.49-5.26-0.3-8.3-3.11-13.4
					c-8.64-7.73-13.67-15.5-17.06-23.29c-4.1-8.57-5.64-17.23-5.78-25.86c-0.04-8.59,1.39-17.24,5.31-25.89
					c3.62-8.66,13.69-21.28,17.51-24.43c3.08-2.47,6.89-2.5,10-0.07c3.89,3.08,14.14,15.54,17.88,24.15
					c4.05,8.6,5.62,17.23,5.72,25.81c-0.01,8.63-1.47,17.31-5.4,25.95c-3.29,7.85-8.18,15.69-16.69,23.55
					c-2.75,5.13-2.53,8.18-2.91,13.44C219.65,1543.77,218.78,1554.38,217.67,1565.04z"/>
			</g>
			<path class="st0" d="M239.51,1686.48c0.08,11.35-9.04,20.62-20.38,20.71c-11.35,0.08-20.62-9.04-20.7-20.4
				c-0.08-11.37,9.04-20.61,20.38-20.7C230.15,1666.01,239.42,1675.11,239.51,1686.48z"/>
			<path class="st1" d="M299.36,1582.68c-6.94,7.08-16.39,10.73-20.09,7.07c-3.69-3.62-0.2-13.14,6.74-20.19
				c6.95-7.08,11.86-6.07,15.52-2.42C305.22,1570.77,306.33,1575.6,299.36,1582.68z"/>
			<path class="st1" d="M157.06,1572.07c7.03,6.95,10.68,16.43,7.05,20.09c-3.65,3.7-13.15,0.21-20.2-6.73
				c-7.08-6.94-6.06-11.87-2.42-15.55C145.11,1566.18,149.99,1565.11,157.06,1572.07z"/>
		</g>
		<g>
			<g>
				<g>
					<path class="st0" d="M237.45,1740.24c-4.2-5.33-7.84-11.91-9.2-22.62c-0.18,10.77,1.62,18.28,4.44,25.43
						c3.21,6.82,6.85,14.47,18.28,20.68c5.52,2.82,13.45,3.64,19.95,0.02c6.55-3.58,9.44-10.05,10.09-14.62
						c1.25-9.46-2.29-14.44-4.57-14.29c-2.68,0-4.18,5.48-7.04,10.75c-3.27,5.2-5.99,7.38-14.05,6.16
						C247.34,1750.03,241.79,1745.25,237.45,1740.24z"/>
				</g>
				<path class="st1" d="M323.48,2018.72c-23.47-0.94-41.41-16.8-43.1-41.04c-1.64-23.47,22.69-49.84,42.48-31.76
					c11.93,10.85-10.83,26.64-15.38,9.74c-1.6-9.48-10.92-5.23-14.52-0.04c-4.12,5.95-4.83,13.98-3.86,20.95
					c4.11,31.9,46.96,37.49,65.53,14.4c22.27-27.75,5.19-64.77-16.34-86.29c-25.7-25.62-55.49-46.9-80.14-73.52
					c-27.9-30.1-30.99-71.24-30.97-110.59c0.67-0.03,1.32-0.05,1.99-0.08c2.62,25.99,6.04,53.64,17.31,77.52
					c10.17,21.49,32.01,36.55,50.26,50.81c39.01,30.43,86.8,71.58,86.52,107.99C382.97,1993.16,358.47,2020.09,323.48,2018.72z"/>
				<path class="st1" d="M406.16,1788.52c-5.37-10.34-15.89-16.44-27.09-18.65c-9.5-1.67-18.79,2.68-8.26,11.25
					c4.9,5.42-1.89,18.66-8.62,12.88c-6.77-6.11-4-20.95,2.53-26.45c20.39-17.1,51.75,12.4,55.13,31.57
					c11.42,64.78-79.72,60.16-116.67,43.42c-46.67-21.2-80.36-75.37-75.61-126.82c6.19,11.4,5.68,32.76,12.05,47
					c7.43,16.66,18.34,31.72,31.52,44.31c28.37,27.04,63.73,37.23,95.28,32.28C397.97,1834.33,419.22,1813.61,406.16,1788.52z"/>
			</g>
			<g>
				<path class="st1" d="M414.5,1899.76c-9.22-17.38-46.56-25.95-53.37-25.66l-0.16,1.63c13.03,3.76,21.7,12.62,29.77,22.63
					c2.01,2.59,3.9,5.24,5.83,8.04c1.82,2.45,3.22,4.4,4.91,6.25c3.27,3.69,8.05,12.91,8.63,14.49
					C410.68,1928.75,423.73,1917.18,414.5,1899.76z"/>
				<path class="st1" d="M413.18,1866.78l-5.42-0.79c-2.07-0.44-5.46-0.24-9.08,0.36l-9.59,2.61c-5.9,1.66-11.26,2.61-17.34,2.71
					c-5.99,0.28-15.61-0.99-18.56-0.58c-2.94,0.44,11.21,6.77,17.59,8.69c6.3,1.69,14.04,5.86,29.72,4.95
					c15.67-0.88,17.35-4.99,20.62-9.57c3.46-4.64,0.16-14.5-1.02-13.07C418.89,1863.6,414.49,1867.18,413.18,1866.78z"/>
			</g>
			<g>
				<path class="st0" d="M397.17,2034.19c4.15,4.47,20.82,9.41,16.42,16.61c-5.83,9.43-20.09,6.04-26.11-1
					c-10.41-12.16-5.53-32.53-4.15-47.11C385.46,2014.71,389.73,2024.54,397.17,2034.19
					C399.17,2036.3,389.35,2024.06,397.17,2034.19z"/>
				<path class="st0" d="M379.6,2067.83c-4.52,14.12-16.84,25.31-32.45,25.39c-12.34,0-31.02-13.9-15.8-19.42
					c16-5.87,22.88-6.69,32.95-22.54c9.54-15.05,15.3-32.31,17.65-49.96C383.38,2023.22,385.86,2046.46,379.6,2067.83
					C377.33,2074.95,383.94,2052.97,379.6,2067.83z"/>
				<path class="st1" d="M399.63,2099.74c0.09-12.52-5.1-24.19-11.64-24.24c-6.51-0.05-11.9,11.55-11.99,24.07
					c-0.1,12.48,5.18,15.97,11.68,16.01C394.22,2115.62,399.53,2112.22,399.63,2099.74z"/>
			</g>
			<g>
				<g>
					<path class="st0" d="M185.55,1751.22c-8.06,1.1-10.76-1.12-13.95-6.36c-2.78-5.31-4.18-10.82-6.88-10.87
						c-2.26-0.19-5.88,4.73-4.76,14.21c0.57,4.59,3.34,11.11,9.83,14.78c6.45,3.71,14.39,3.01,19.97,0.27
						c11.5-6.03,15.27-13.62,18.58-20.39c2.9-7.12,4.87-14.6,4.82-25.37c-1.52,10.7-5.25,17.22-9.52,22.47
						C199.24,1744.92,193.6,1749.62,185.55,1751.22z"/>
				</g>
				<path class="st1" d="M113.38,2017.12c23.49-0.58,41.67-16.18,43.71-40.39c2.02-23.43-21.93-50.18-41.96-32.4
					c-12.13,10.67,10.39,26.8,15.2,9.98c1.75-9.47,11-5.08,14.54,0.18c4.03,6.01,4.61,14.06,3.54,21
					c-4.61,31.82-47.55,36.78-65.72,13.39c-21.88-28.08-4.22-64.84,17.64-86.03c26.08-25.24,56.19-46.03,81.26-72.28
					c28.34-29.67,32.08-70.76,32.62-110.11c-0.65-0.03-1.3-0.07-1.96-0.1c-3,25.94-6.86,53.54-18.52,77.24
					c-10.5,21.33-32.56,36.06-50.98,50.04c-39.49,29.83-87.89,70.25-88.18,106.64C54.28,1990.65,78.38,2017.96,113.38,2017.12z"/>
				<path class="st1" d="M34.21,1785.69c5.51-10.27,16.13-16.21,27.37-18.22c9.53-1.54,18.76,2.94,8.1,11.36
					c-5,5.35,1.57,18.68,8.41,13.01c6.87-6,4.32-20.88-2.13-26.49c-20.12-17.41-51.93,11.63-55.6,30.73
					c-12.42,64.59,78.77,61.38,115.97,45.18c47.02-20.47,81.49-74.12,77.55-125.64c-6.34,11.3-6.19,32.68-12.77,46.81
					c-7.67,16.54-18.81,31.44-32.18,43.83c-28.76,26.6-64.28,36.26-95.76,30.83C41.69,1831.62,20.75,1810.58,34.21,1785.69z"/>
			</g>
			<g>
				<path class="st1" d="M24.18,1896.79c9.49-17.25,46.94-25.23,53.74-24.85l0.15,1.64c-13.09,3.55-21.91,12.29-30.12,22.17
					c-2.04,2.57-3.98,5.18-5.95,7.95c-1.88,2.42-3.29,4.35-5.02,6.17c-3.32,3.66-8.23,12.8-8.84,14.37
					C27.55,1925.83,14.66,1914.07,24.18,1896.79z"/>
				<path class="st1" d="M25.99,1863.83l5.43-0.69c2.09-0.42,5.46-0.17,9.09,0.5l9.55,2.75c5.88,1.76,11.22,2.8,17.29,2.97
					c5.99,0.38,15.62-0.75,18.58-0.29c2.93,0.49-11.32,6.61-17.72,8.43c-6.34,1.59-14.13,5.64-29.79,4.5
					c-15.67-1.12-17.3-5.25-20.47-9.88c-3.4-4.69,0.04-14.5,1.21-13.05C20.34,1860.57,24.68,1864.2,25.99,1863.83z"/>
			</g>
			<g>
				<path class="st0" d="M39.47,2031.46c7.56-9.52,11.99-19.29,14.3-31.28c1.16,14.59,5.72,35.04-4.85,47.04
					c-6.13,6.95-20.46,10.11-26.13,0.6C18.5,2040.55,35.25,2035.88,39.47,2031.46C47.42,2021.44,37.43,2033.55,39.47,2031.46z"/>
				<path class="st0" d="M56.51,2065.38c-5.94-21.47-3.11-44.67-1.33-66.56c2.08,17.69,7.57,35.01,16.89,50.21
					c9.8,16,16.71,16.94,32.6,23.04c15.14,5.76-3.78,19.39-16.08,19.2C72.96,2090.93,60.83,2079.57,56.51,2065.38
					C52.39,2050.46,58.67,2072.52,56.51,2065.38z"/>
				<path class="st1" d="M60.55,2097.16c0.09-12.51-5.11-24.19-11.65-24.23c-6.52-0.07-11.89,11.54-11.99,24.06
					c-0.09,12.48,5.16,15.97,11.68,16.01C55.13,2113.05,60.45,2109.63,60.55,2097.16z"/>
			</g>
			<g>
				<path class="st0" d="M238.46,2069.07c5.18,4.28,28.64,11.99,29.97,18.36c2.34,9.48-19.64,7.77-23.86,6.33
					c-26.8-9.13-28.5-42.35-27.48-66.08C219.27,2043.46,225.96,2058.73,238.46,2069.07
					C245.03,2074.46,231.62,2063.44,238.46,2069.07z"/>
				<path class="st0" d="M249.87,2022.08c12.25,14.58,14.66,12.46,31.63,12.63c7.46,0.06,4.81,9.39,2.64,13.19
					c-6.29,10.93-20.23,14.37-31.48,9.74c-33.12-13.7-36.03-68.26-35.03-97.9C220.93,1982.68,235.29,2004.17,249.87,2022.08
					C253.96,2026.93,241.45,2011.74,249.87,2022.08z"/>
				<path class="st0" d="M195.3,2068.74c12.66-10.14,19.57-25.31,22-41.05c0.65,23.73-1.56,56.94-28.51,65.66
					c-4.2,1.37-26.22,2.74-23.75-6.69C166.49,2080.3,190.03,2072.95,195.3,2068.74C202.22,2063.2,188.65,2074.03,195.3,2068.74z"/>
				<path class="st0" d="M184.59,2021.58c14.87-17.69,29.37-38.96,33.04-61.85c0.54,29.65-3.03,84.16-36.36,97.35
					c-11.34,4.47-25.2,0.82-31.33-10.19c-2.11-3.86-4.61-13.22,2.84-13.17C169.75,2033.81,172.11,2035.96,184.59,2021.58
					C193.17,2011.37,180.42,2026.37,184.59,2021.58z"/>
			</g>
			<g>
				<path class="st1" d="M271.45,1861.87c-7.58-6.07-15.26-10.72-24.95-12.66c-1.82-0.38-23.8-3.06-23.92-2.83
					c-3.87,9.48,26.49,27.68,37.81,39.24c11.32,11.53,26.34,47.21,30.29,44.73C294.61,1927.87,290.38,1877.04,271.45,1861.87z"/>
				<path class="st1" d="M163.36,1861.05c7.69-5.96,15.45-10.49,25.13-12.29c1.85-0.36,23.9-2.7,23.98-2.46
					c3.72,9.53-26.93,27.28-38.41,38.66c-11.48,11.36-27.07,46.79-30.96,44.27C139.24,1926.69,144.24,1875.93,163.36,1861.05z"/>
				<path class="st1" d="M217.67,1808.42c-1.28,10.64-2.02,21.24-2.82,31.91c-0.49,5.26-0.3,8.3-3.11,13.4
					c-8.64,7.73-13.67,15.5-17.06,23.29c-4.1,8.57-5.64,17.23-5.78,25.86c-0.04,8.59,1.39,17.24,5.31,25.89
					c3.62,8.66,13.69,21.28,17.51,24.43c3.08,2.47,6.89,2.5,10,0.07c3.89-3.08,14.14-15.54,17.88-24.15
					c4.05-8.6,5.62-17.23,5.72-25.81c-0.01-8.63-1.47-17.31-5.4-25.95c-3.29-7.85-8.18-15.69-16.69-23.55
					c-2.75-5.13-2.53-8.18-2.91-13.44C219.65,1829.7,218.78,1819.08,217.67,1808.42z"/>
			</g>
			<path class="st1" d="M157.06,1801.39c7.03-6.94,10.68-16.43,7.05-20.09c-3.65-3.7-13.15-0.21-20.2,6.73
				c-7.08,6.94-6.06,11.87-2.42,15.55C145.11,1807.28,149.99,1808.36,157.06,1801.39z"/>
		</g>
		<g>
			<g>
				<path class="st0" d="M27.65,2258.57c-10.56-2.64-8.77,21.96-7.22,26.64c10.1,30.02,47.28,32.09,73.8,31.09
					c-17.64-2.52-34.69-10.08-46.17-24.09C42.04,2284.81,34.82,2260.1,27.65,2258.57z"/>
				<path class="st0" d="M86.7,2244.26c-0.03-8.34-10.49-5.44-14.78-3.01c-12.22,6.95-16.13,22.49-11.01,35.11
					c15.13,37.13,76.11,40.66,109.23,39.7c-25.64-3.84-49.57-19.98-69.49-36.38C95.22,2275.06,86.81,2263.23,86.7,2244.26z"/>
				<path class="st0" d="M94.23,2316.07c-26.53-0.84-63.69,1.46-73.62,31.5c-1.51,4.74-3.15,29.32,7.39,26.61
					c7.15-1.59,15.48-27.88,20.21-33.74C54.43,2332.73,76.6,2318.68,94.23,2316.07z"/>
			</g>
			<g>
				<path class="st0" d="M344.92,2314.02c26.53,0.84,63.67-1.44,73.58-31.52c1.55-4.71,3.19-29.3-7.37-26.57
					c-7.13,1.55-15.48,27.86-20.22,33.71C384.72,2297.36,362.55,2311.41,344.92,2314.02z"/>
				<path class="st0" d="M411.47,2371.55c10.58,2.63,8.8-21.97,7.22-26.66c-10.09-30.02-47.24-32.09-73.76-31.09
					c17.63,2.53,34.64,10.09,46.13,24.09C397.11,2345.26,404.34,2369.96,411.47,2371.55z"/>
				<path class="st0" d="M352.42,2385.84c0.02,8.33,10.5,5.42,14.78,3.01c12.25-6.97,16.12-22.5,11.04-35.14
					c-15.13-37.09-76.14-40.44-109.25-39.47c25.64,3.8,49.6,19.76,69.57,36.19C343.9,2355.01,352.31,2366.86,352.42,2385.84z"/>
			</g>
			<g>
				<path class="st0" d="M75.64,2453.98c-7.52,7.89,14.75,18.48,19.58,19.45c31.08,6.05,51.27-25.25,63.51-48.79
					c-10.94,14.11-25.9,25.17-43.75,28.24C105.58,2454.46,80.5,2448.54,75.64,2453.98z"/>
				<path class="st0" d="M92.39,2395.58c-7.23-4.11-9.92,6.42-9.93,11.34c0,14.08,11.62,25.18,25.11,26.92
					c39.73,5.22,72.92-46.06,88.48-75.31c-16.01,20.39-41.9,33.21-66,42.42C123.36,2403.38,108.91,2404.85,92.39,2395.58z"/>
				<path class="st0" d="M158.55,2424.54c-13.89,22.66-30.24,56.08-8.99,79.56c3.31,3.68,23.86,17.22,26.74,6.73
					c2.15-7.01-16.57-27.23-19.34-34.24C153.32,2467.36,152.08,2441.15,158.55,2424.54z"/>
			</g>
			<g>
				<path class="st0" d="M280.63,2205.6c13.83-22.69,30.22-56.11,8.99-79.57c-3.34-3.67-23.89-17.24-26.77-6.73
					c-2.13,6.97,16.58,27.22,19.33,34.25C285.8,2162.75,287.08,2188.99,280.63,2205.6z"/>
				<path class="st0" d="M363.53,2176.15c7.5-7.9-14.74-18.5-19.6-19.46c-31.08-6.05-51.3,25.24-63.49,48.82
					c10.89-14.12,25.88-25.19,43.74-28.25C333.61,2175.68,358.62,2181.57,363.53,2176.15z"/>
				<path class="st0" d="M346.77,2234.57c7.26,4.08,9.95-6.45,9.93-11.37c0.04-14.06-11.57-25.17-25.12-26.93
					c-39.7-5.21-72.75,46.17-88.28,75.42c16.01-20.39,41.71-33.32,65.82-42.55C315.79,2226.73,330.26,2225.27,346.77,2234.57z"/>
			</g>
			<g>
				<path class="st0" d="M267.3,2509.32c3.01,10.47,23.38-3.43,26.65-7.15c20.87-23.82,3.95-56.99-10.24-79.4
					c6.67,16.52,8.74,35.04,2.4,52.03C282.75,2483.71,265.05,2502.4,267.3,2509.32z"/>
				<path class="st0" d="M225.22,2465.46c-7.18,4.23,0.57,11.84,4.83,14.28c12.16,7.11,27.58,2.63,35.88-8.11
					c24.5-31.76-3.14-86.25-20.63-114.36c9.58,24.09,7.66,52.89,3.52,78.39C247.58,2442.62,241.56,2455.86,225.22,2465.46z"/>
				<path class="st0" d="M283.51,2422.89c12.61,23.36,33.28,54.3,64.25,47.75c4.85-1.03,26.93-12.01,19.29-19.77
					c-4.97-5.37-31.86,0.67-39.32-0.49C317.92,2448.87,294.66,2436.79,283.51,2422.89z"/>
			</g>
			<g>
				<path class="st0" d="M155.64,2207.22c-12.65-23.34-33.29-54.3-64.24-47.76c-4.84,1.03-26.96,11.99-19.32,19.76
					c4.97,5.38,31.89-0.64,39.33,0.49C121.2,2181.24,144.53,2193.32,155.64,2207.22z"/>
				<path class="st0" d="M171.86,2120.79c-3.05-10.46-23.42,3.43-26.65,7.16c-20.87,23.81-3.96,56.99,10.23,79.39
					c-6.7-16.5-8.73-35.02-2.39-52C156.4,2146.4,174.12,2127.74,171.86,2120.79z"/>
				<path class="st0" d="M213.96,2164.63c7.19-4.21-0.62-11.85-4.84-14.29c-12.18-7.08-27.59-2.65-35.92,8.15
					c-24.46,31.74,3.35,86.14,20.82,114.27c-9.61-24.09-7.86-52.81-3.71-78.32C191.54,2187.49,197.57,2174.24,213.96,2164.63z"/>
			</g>
			<path class="st0" d="M219.16,2337.01c-12.68,0.03-22.99-10.23-23.03-22.93c-0.04-12.66,10.21-22.98,22.89-23.02
				c12.68-0.04,23.01,10.23,23.05,22.89C242.1,2326.64,231.83,2336.97,219.16,2337.01z"/>
			<path class="st1" d="M403.19,2220.14c-6.66,0.02-12.06-5.36-12.07-12c-0.03-6.66,5.34-12.06,12.01-12.08
				c6.64-0.02,12.04,5.35,12.08,12.01C415.23,2214.71,409.85,2220.11,403.19,2220.14z"/>
			<path class="st1" d="M403.81,2427.29c-6.67,0.02-12.07-5.37-12.08-12.02c-0.03-6.64,5.35-12.02,12.01-12.05
				c6.65-0.02,12.04,5.34,12.08,11.99C415.83,2421.86,410.45,2427.27,403.81,2427.29z"/>
			<path class="st1" d="M49.93,2221.16c-6.67,0.02-12.08-5.35-12.09-11.99c-0.02-6.66,5.35-12.06,12.02-12.08
				c6.61-0.03,12.06,5.35,12.08,12.01C61.97,2215.74,56.54,2221.15,49.93,2221.16z"/>
			<path class="st1" d="M50.53,2428.31c-6.67,0.03-12.08-5.34-12.09-12c-0.02-6.65,5.36-12.03,12.02-12.05
				c6.61-0.02,12.07,5.33,12.08,11.98C62.57,2422.9,57.15,2428.3,50.53,2428.31z"/>
			<path class="st1" d="M321.37,2146.45c-4.27,0.01-7.73-3.44-7.75-7.7c-0.01-4.29,3.44-7.76,7.71-7.77
				c4.25-0.01,7.74,3.44,7.75,7.73C329.1,2142.96,325.64,2146.44,321.37,2146.45z"/>
			<path class="st1" d="M322.41,2498.89c-4.27,0.02-7.73-3.45-7.75-7.72c-0.01-4.28,3.43-7.74,7.7-7.75
				c4.25-0.01,7.74,3.42,7.75,7.71C330.14,2495.38,326.67,2498.87,322.41,2498.89z"/>
			<path class="st1" d="M117.67,2147.04c-4.29,0.01-7.79-3.44-7.79-7.71c-0.02-4.28,3.44-7.76,7.73-7.77
				c4.25-0.01,7.74,3.44,7.77,7.73C125.39,2143.56,121.9,2147.03,117.67,2147.04z"/>
			<path class="st1" d="M118.69,2499.48c-4.3,0.02-7.79-3.45-7.79-7.72c-0.01-4.27,3.45-7.73,7.74-7.75
				c4.25-0.01,7.75,3.42,7.77,7.71C126.41,2495.98,122.93,2499.46,118.69,2499.48z"/>
			<path class="st0" d="M86.14,2387.61c0.03,8.33-10.47,5.5-14.77,3.1c-12.27-6.86-16.25-22.43-11.22-35.04
				c14.89-37.23,75.86-41.11,108.99-40.35c-25.62,3.99-49.45,20.29-69.32,36.8C94.49,2356.74,86.12,2368.63,86.14,2387.61z"/>
			<path class="st0" d="M352.76,2241.75c-0.02-8.33,10.51-5.48,14.79-3.09c12.26,6.89,16.25,22.41,11.18,35.07
				c-14.85,37.2-75.83,40.88-108.96,40.13c25.61-3.98,49.5-20.08,69.29-36.62C344.47,2272.65,352.8,2260.75,352.76,2241.75z"/>
			<path class="st0" d="M90.03,2236.27c-7.26,4.11-9.97-6.39-9.97-11.29c-0.11-14.07,11.41-25.23,24.87-27.06
				c39.73-5.45,73.27,45.62,88.91,74.79c-16.07-20.31-42.03-32.97-66.2-42.07C120.93,2228.25,106.49,2226.85,90.03,2236.27z"/>
			<path class="st0" d="M348.02,2393.09c7.22-4.14,9.96,6.38,9.97,11.29c0.12,14.06-11.4,25.22-24.9,27.07
				c-39.71,5.44-73.04-45.74-88.75-74.91c16.09,20.31,41.93,33.09,66.07,42.16C317.06,2401.11,331.52,2402.47,348.02,2393.09z"/>
			<path class="st0" d="M222.87,2163.78c-7.18-4.17,0.52-11.81,4.74-14.31c12.13-7.17,27.58-2.8,35.91,7.91
				c24.69,31.62-2.58,86.25-19.92,114.49c9.42-24.15,7.36-52.94,3.05-78.4C245.38,2186.5,239.29,2173.31,222.87,2163.78z"/>
			<path class="st0" d="M216.51,2467.37c7.22,4.17-0.52,11.85-4.76,14.31c-12.12,7.17-27.52,2.81-35.92-7.92
				c-24.68-31.6,2.78-86.17,20.1-114.39c-9.43,24.13-7.51,52.85-3.22,78.34C194.01,2444.66,200.11,2457.87,216.51,2467.37z"/>
		</g>
	</g>
	<g>
		<g>
			<g>
				<g>
					<path class="st0" d="M255.35,2877.63c8.05-1.22,10.78,0.96,14.05,6.16c2.86,5.26,4.36,10.74,7.04,10.75
						c2.27,0.15,5.82-4.82,4.57-14.29c-0.65-4.57-3.54-11.04-10.09-14.62c-6.5-3.62-14.43-2.8-19.95,0.02
						c-11.42,6.21-15.07,13.86-18.28,20.68c-2.82,7.15-4.62,14.66-4.44,25.43c1.36-10.71,5-17.29,9.2-22.62
						C241.79,2884.13,247.34,2879.35,255.35,2877.63z"/>
				</g>
				<path class="st1" d="M323.48,2610.66c-23.47,0.94-41.41,16.8-43.1,41.04c-1.64,23.47,22.69,49.84,42.48,31.76
					c11.93-10.85-10.83-26.64-15.38-9.74c-1.6,9.48-10.92,5.23-14.52,0.04c-4.12-5.95-4.83-13.98-3.86-20.95
					c4.11-31.9,46.96-37.49,65.53-14.4c22.27,27.75,5.19,64.77-16.34,86.29c-25.7,25.62-55.49,46.9-80.14,73.52
					c-27.9,30.1-30.99,71.24-30.97,110.59c0.67,0.03,1.32,0.05,1.99,0.08c2.62-25.99,6.04-53.64,17.31-77.52
					c10.17-21.49,32.01-36.55,50.26-50.81c39.01-30.43,86.8-71.58,86.52-107.99C382.97,2636.22,358.47,2609.29,323.48,2610.66z"/>
				<path class="st1" d="M406.16,2840.86c-5.37,10.34-15.89,16.44-27.09,18.65c-9.5,1.67-18.79-2.68-8.26-11.25
					c4.9-5.42-1.89-18.66-8.62-12.88c-6.77,6.11-4,20.95,2.53,26.45c20.39,17.1,51.75-12.4,55.13-31.57
					c11.42-64.78-79.72-60.16-116.67-43.42c-46.67,21.2-80.36,75.37-75.61,126.82c6.19-11.4,5.68-32.76,12.05-47
					c7.43-16.66,18.34-31.72,31.52-44.31c28.37-27.04,63.73-37.23,95.28-32.28C397.97,2795.05,419.22,2815.77,406.16,2840.86z"/>
			</g>
			<g>
				<path class="st1" d="M414.5,2729.62c-9.22,17.38-46.56,25.95-53.37,25.66l-0.16-1.63c13.03-3.76,21.7-12.62,29.77-22.63
					c2.01-2.59,3.9-5.24,5.83-8.04c1.82-2.45,3.22-4.4,4.91-6.25c3.27-3.69,8.05-12.91,8.63-14.49
					C410.68,2700.63,423.73,2712.2,414.5,2729.62z"/>
				<path class="st1" d="M413.18,2762.6l-5.42,0.79c-2.07,0.44-5.46,0.24-9.08-0.36l-9.59-2.61c-5.9-1.66-11.26-2.61-17.34-2.71
					c-5.99-0.28-15.61,0.99-18.56,0.58c-2.94-0.44,11.21-6.77,17.59-8.69c6.3-1.69,14.04-5.86,29.72-4.95
					c15.67,0.88,17.35,4.99,20.62,9.57c3.46,4.63,0.16,14.5-1.02,13.07C418.89,2765.78,414.49,2762.2,413.18,2762.6z"/>
			</g>
			<g>
				<path class="st0" d="M397.17,2595.19c4.15-4.47,20.82-9.41,16.42-16.61c-5.83-9.43-20.09-6.04-26.11,1
					c-10.41,12.16-5.53,32.53-4.15,47.11C385.46,2614.67,389.73,2604.84,397.17,2595.19
					C399.17,2593.08,389.35,2605.32,397.17,2595.19z"/>
				<path class="st0" d="M379.6,2561.55c-4.52-14.12-16.84-25.31-32.45-25.39c-12.34,0-31.02,13.9-15.8,19.42
					c16,5.87,22.88,6.69,32.95,22.54c9.54,15.05,15.3,32.31,17.65,49.96C383.38,2606.15,385.86,2582.92,379.6,2561.55
					C377.33,2554.43,383.94,2576.4,379.6,2561.55z"/>
				<path class="st1" d="M399.63,2529.64c0.09,12.52-5.1,24.19-11.64,24.24c-6.51,0.05-11.9-11.55-11.99-24.07
					c-0.1-12.48,5.18-15.97,11.68-16.01C394.22,2513.76,399.53,2517.16,399.63,2529.64z"/>
			</g>
			<g>
				<g>
					<path class="st0" d="M203.64,2889.41c4.27,5.26,8,11.77,9.52,22.47c0.05-10.77-1.91-18.25-4.82-25.37
						c-3.31-6.76-7.08-14.35-18.58-20.39c-5.58-2.74-13.51-3.45-19.97,0.27c-6.5,3.67-9.27,10.19-9.83,14.78
						c-1.12,9.48,2.5,14.4,4.76,14.21c2.69-0.05,4.1-5.55,6.88-10.87c3.19-5.24,5.89-7.46,13.95-6.36
						C193.6,2879.75,199.24,2884.46,203.64,2889.41z"/>
				</g>
				<path class="st1" d="M113.38,2612.25c23.49,0.58,41.67,16.18,43.71,40.39c2.02,23.43-21.93,50.18-41.96,32.4
					c-12.13-10.67,10.39-26.8,15.2-9.98c1.75,9.47,11,5.08,14.54-0.18c4.03-6.01,4.61-14.06,3.54-21
					c-4.61-31.82-47.55-36.78-65.72-13.39c-21.88,28.08-4.22,64.84,17.64,86.03c26.08,25.24,56.19,46.03,81.26,72.28
					c28.34,29.67,32.08,70.76,32.62,110.11c-0.65,0.03-1.3,0.07-1.96,0.1c-3-25.94-6.86-53.54-18.52-77.24
					c-10.5-21.33-32.56-36.06-50.98-50.04c-39.49-29.83-87.89-70.25-88.18-106.64C54.28,2638.73,78.38,2611.42,113.38,2612.25z"/>
				<path class="st1" d="M34.21,2843.69c5.51,10.27,16.13,16.21,27.37,18.22c9.53,1.54,18.76-2.94,8.1-11.36
					c-5-5.35,1.57-18.68,8.41-13.01c6.87,6,4.32,20.88-2.13,26.49c-20.12,17.41-51.93-11.63-55.6-30.73
					c-12.42-64.59,78.77-61.38,115.97-45.18c47.02,20.47,81.49,74.12,77.55,125.64c-6.34-11.3-6.19-32.68-12.77-46.81
					c-7.67-16.54-18.81-31.44-32.18-43.83c-28.76-26.6-64.28-36.26-95.76-30.83C41.69,2797.76,20.75,2818.8,34.21,2843.69z"/>
			</g>
			<g>
				<path class="st1" d="M24.18,2732.59c9.49,17.25,46.94,25.23,53.74,24.85l0.15-1.64c-13.09-3.55-21.91-12.29-30.12-22.17
					c-2.04-2.57-3.98-5.18-5.95-7.95c-1.88-2.42-3.29-4.35-5.02-6.17c-3.32-3.66-8.23-12.8-8.84-14.37
					C27.55,2703.54,14.66,2715.31,24.18,2732.59z"/>
				<path class="st1" d="M25.99,2765.55l5.43,0.69c2.09,0.42,5.46,0.17,9.09-0.5l9.55-2.75c5.88-1.76,11.22-2.8,17.29-2.97
					c5.99-0.38,15.62,0.75,18.58,0.29c2.93-0.49-11.32-6.61-17.72-8.43c-6.34-1.59-14.13-5.64-29.79-4.5
					c-15.67,1.12-17.3,5.25-20.47,9.88c-3.4,4.69,0.04,14.5,1.21,13.05C20.34,2768.81,24.68,2765.18,25.99,2765.55z"/>
			</g>
			<g>
				<path class="st0" d="M39.47,2597.92c7.56,9.52,11.99,19.29,14.3,31.28c1.16-14.59,5.72-35.04-4.85-47.04
					c-6.13-6.95-20.46-10.11-26.13-0.6C18.5,2588.83,35.25,2593.5,39.47,2597.92C47.42,2607.94,37.43,2595.83,39.47,2597.92z"/>
				<path class="st0" d="M56.51,2564c-5.94,21.47-3.11,44.67-1.33,66.56c2.08-17.69,7.57-35.01,16.89-50.21
					c9.8-16,16.71-16.94,32.6-23.04c15.14-5.76-3.78-19.39-16.08-19.2C72.96,2538.45,60.83,2549.81,56.51,2564
					C52.39,2578.92,58.67,2556.85,56.51,2564z"/>
				<path class="st1" d="M60.55,2532.22c0.09,12.51-5.11,24.19-11.65,24.23c-6.52,0.07-11.89-11.54-11.99-24.06
					c-0.09-12.48,5.16-15.97,11.68-16.01C55.13,2516.33,60.45,2519.75,60.55,2532.22z"/>
			</g>
			<g>
				<path class="st0" d="M238.46,2560.31c5.18-4.28,28.64-11.99,29.97-18.36c2.34-9.48-19.64-7.77-23.86-6.33
					c-26.8,9.13-28.5,42.35-27.48,66.08C219.27,2585.92,225.96,2570.65,238.46,2560.31
					C245.03,2554.92,231.62,2565.94,238.46,2560.31z"/>
				<path class="st0" d="M249.87,2607.3c12.25-14.58,14.66-12.46,31.63-12.63c7.46-0.06,4.81-9.39,2.64-13.19
					c-6.29-10.93-20.23-14.37-31.48-9.74c-33.12,13.7-36.03,68.26-35.03,97.9C220.93,2646.7,235.29,2625.21,249.87,2607.3
					C253.96,2602.45,241.45,2617.64,249.87,2607.3z"/>
				<path class="st0" d="M195.3,2560.64c12.66,10.14,19.57,25.31,22,41.05c0.65-23.73-1.56-56.94-28.51-65.66
					c-4.2-1.37-26.22-2.74-23.75,6.69C166.49,2549.08,190.03,2556.43,195.3,2560.64C202.22,2566.18,188.65,2555.35,195.3,2560.64z"
					/>
				<path class="st0" d="M184.59,2607.8c14.87,17.69,29.37,38.96,33.04,61.85c0.54-29.65-3.03-84.16-36.36-97.35
					c-11.34-4.47-25.2-0.82-31.33,10.19c-2.11,3.86-4.61,13.22,2.84,13.17C169.75,2595.57,172.11,2593.42,184.59,2607.8
					C193.17,2618.01,180.42,2603.01,184.59,2607.8z"/>
			</g>
			<g>
				<path class="st0" d="M356.2,2966.53c4.28,5.19,11.99,28.65,18.38,29.97c9.47,2.34,7.76-19.63,6.34-23.84
					c-9.15-26.8-42.4-28.48-66.12-27.5C330.59,2947.34,345.85,2954.04,356.2,2966.53C361.62,2973.11,350.56,2959.72,356.2,2966.53z"
					/>
				<path class="st0" d="M309.22,2977.97c14.56,12.27,12.42,14.64,12.59,31.61c0.06,7.46,9.42,4.82,13.23,2.66
					c10.91-6.31,14.34-20.22,9.68-31.46c-13.66-33.15-68.23-36.09-97.85-35.09C269.84,2949.03,291.31,2963.39,309.22,2977.97
					C314.07,2982.05,298.89,2969.54,309.22,2977.97z"/>
				<path class="st0" d="M355.87,2923.38c-10.16,12.65-25.32,19.56-41.08,21.99c23.72,0.65,56.95-1.55,65.69-28.47
					c1.36-4.22,2.73-26.22-6.7-23.77C367.43,2894.59,360.08,2918.13,355.87,2923.38C350.33,2930.3,361.19,2916.74,355.87,2923.38z"
					/>
				<path class="st0" d="M308.73,2912.69c-17.69,14.86-38.94,29.33-61.85,32.99c29.63,0.55,84.14-2.97,97.3-36.33
					c4.48-11.35,0.84-25.19-10.16-31.31c-3.84-2.15-13.25-4.61-13.19,2.8C320.93,2897.85,323.1,2900.21,308.73,2912.69
					C298.52,2921.28,313.51,2908.51,308.73,2912.69z"/>
			</g>
			<g>
				<path class="st0" d="M82.38,2968.62c10.15-12.66,25.29-19.59,41.03-21.99c-23.72-0.63-56.92,1.56-65.68,28.5
					c-1.35,4.22-2.72,26.21,6.73,23.73C70.82,2997.45,78.19,2973.89,82.38,2968.62C87.93,2961.73,77.07,2975.28,82.38,2968.62z"/>
				<path class="st0" d="M129.53,2979.34c17.66-14.86,38.93-29.55,61.83-33.22c-29.63-0.55-84.16,3.21-97.32,36.57
					c-4.49,11.31-0.84,25.17,10.19,31.3c3.85,2.11,13.23,4.61,13.18-2.86C117.3,2994.18,115.16,2991.82,129.53,2979.34
					C139.73,2970.75,124.73,2983.48,129.53,2979.34z"/>
				<path class="st0" d="M82.05,2925.47c-4.26-5.19-12.01-28.63-18.37-29.98c-9.48-2.31-7.78,19.66-6.36,23.88
					c9.16,26.79,42.4,28.48,66.1,27.47C107.64,2944.64,92.39,2937.96,82.05,2925.47C76.64,2918.92,87.7,2932.31,82.05,2925.47z"/>
				<path class="st0" d="M129.03,2914.06c-14.56-12.27-12.45-14.65-12.6-31.65c-0.06-7.43-9.42-4.82-13.22-2.62
					c-10.92,6.28-14.37,20.19-9.72,31.46c13.67,33.15,68.26,35.85,97.87,34.86C168.42,2942.81,146.94,2928.64,129.03,2914.06
					C124.18,2909.96,139.36,2922.49,129.03,2914.06z"/>
			</g>
			<g>
				<path class="st1" d="M271.45,2767.51c-7.58,6.07-15.26,10.72-24.95,12.66c-1.82,0.38-23.8,3.06-23.92,2.83
					c-3.87-9.48,26.49-27.68,37.81-39.24c11.32-11.53,26.34-47.21,30.29-44.73C294.61,2701.51,290.38,2752.34,271.45,2767.51z"/>
				<path class="st1" d="M163.36,2768.33c7.69,5.96,15.45,10.49,25.13,12.29c1.85,0.36,23.9,2.7,23.98,2.46
					c3.72-9.53-26.93-27.28-38.41-38.66c-11.48-11.36-27.07-46.79-30.96-44.27C139.24,2702.69,144.24,2753.45,163.36,2768.33z"/>
				<path class="st1" d="M217.67,2820.96c-1.28-10.64-2.02-21.24-2.82-31.91c-0.49-5.26-0.3-8.3-3.11-13.4
					c-8.64-7.73-13.67-15.5-17.06-23.29c-4.1-8.57-5.64-17.23-5.78-25.86c-0.04-8.59,1.39-17.24,5.31-25.89
					c3.62-8.66,13.69-21.28,17.51-24.43c3.08-2.47,6.89-2.5,10-0.07c3.89,3.08,14.14,15.54,17.88,24.15
					c4.05,8.6,5.62,17.23,5.72,25.81c-0.01,8.63-1.47,17.31-5.4,25.95c-3.29,7.85-8.18,15.69-16.69,23.55
					c-2.75,5.13-2.53,8.18-2.91,13.44C219.65,2799.68,218.78,2810.3,217.67,2820.96z"/>
			</g>
			<path class="st0" d="M239.51,2942.4c0.08,11.35-9.04,20.62-20.38,20.71c-11.35,0.08-20.62-9.04-20.7-20.4
				c-0.08-11.37,9.04-20.61,20.38-20.7C230.15,2921.93,239.42,2931.03,239.51,2942.4z"/>
			<path class="st1" d="M299.36,2838.59c-6.94,7.08-16.39,10.73-20.09,7.07c-3.69-3.62-0.2-13.14,6.74-20.19
				c6.95-7.08,11.86-6.07,15.52-2.42C305.22,2826.68,306.33,2831.52,299.36,2838.59z"/>
			<path class="st1" d="M157.06,2827.99c7.03,6.95,10.68,16.43,7.05,20.09c-3.65,3.7-13.15,0.21-20.2-6.73
				c-7.08-6.94-6.06-11.87-2.42-15.55C145.11,2822.1,149.99,2821.02,157.06,2827.99z"/>
		</g>
		<g>
			<g>
				<g>
					<path class="st0" d="M237.45,2996.15c-4.2-5.33-7.84-11.91-9.2-22.62c-0.18,10.77,1.62,18.28,4.44,25.43
						c3.21,6.82,6.85,14.47,18.28,20.68c5.52,2.82,13.45,3.64,19.95,0.02c6.55-3.58,9.44-10.05,10.09-14.62
						c1.25-9.46-2.29-14.44-4.57-14.29c-2.68,0-4.18,5.48-7.04,10.75c-3.27,5.2-5.99,7.38-14.05,6.16
						C247.34,3005.95,241.79,3001.16,237.45,2996.15z"/>
				</g>
				<path class="st1" d="M323.48,3274.64c-23.47-0.94-41.41-16.8-43.1-41.04c-1.64-23.47,22.69-49.84,42.48-31.76
					c11.93,10.85-10.83,26.64-15.38,9.74c-1.6-9.48-10.92-5.23-14.52-0.04c-4.12,5.95-4.83,13.98-3.86,20.95
					c4.11,31.9,46.96,37.49,65.53,14.4c22.27-27.75,5.19-64.77-16.34-86.29c-25.7-25.62-55.49-46.9-80.14-73.52
					c-27.9-30.1-30.99-71.24-30.97-110.59c0.67-0.03,1.32-0.05,1.99-0.08c2.62,25.99,6.04,53.64,17.31,77.52
					c10.17,21.49,32.01,36.55,50.26,50.81c39.01,30.43,86.8,71.58,86.52,107.99C382.97,3249.07,358.47,3276,323.48,3274.64z"/>
				<path class="st1" d="M406.16,3044.44c-5.37-10.34-15.89-16.44-27.09-18.65c-9.5-1.67-18.79,2.68-8.26,11.25
					c4.9,5.42-1.89,18.66-8.62,12.88c-6.77-6.11-4-20.95,2.53-26.45c20.39-17.1,51.75,12.4,55.13,31.57
					c11.42,64.78-79.72,60.16-116.67,43.42c-46.67-21.2-80.36-75.37-75.61-126.82c6.19,11.4,5.68,32.76,12.05,47
					c7.43,16.66,18.34,31.72,31.52,44.31c28.37,27.04,63.73,37.23,95.28,32.28C397.97,3090.25,419.22,3069.52,406.16,3044.44z"/>
			</g>
			<g>
				<path class="st1" d="M414.5,3155.68c-9.22-17.38-46.56-25.95-53.37-25.66l-0.16,1.63c13.03,3.76,21.7,12.62,29.77,22.63
					c2.01,2.59,3.9,5.24,5.83,8.04c1.82,2.45,3.22,4.4,4.91,6.25c3.27,3.69,8.05,12.91,8.63,14.49
					C410.68,3184.67,423.73,3173.09,414.5,3155.68z"/>
				<path class="st1" d="M413.18,3122.69l-5.42-0.79c-2.07-0.44-5.46-0.24-9.08,0.36l-9.59,2.61c-5.9,1.66-11.26,2.61-17.34,2.71
					c-5.99,0.28-15.61-0.99-18.56-0.58c-2.94,0.44,11.21,6.77,17.59,8.69c6.3,1.69,14.04,5.86,29.72,4.95
					c15.67-0.88,17.35-4.99,20.62-9.57c3.46-4.64,0.16-14.5-1.02-13.07C418.89,3119.52,414.49,3123.09,413.18,3122.69z"/>
			</g>
			<g>
				<path class="st0" d="M397.17,3290.1c4.15,4.47,20.82,9.41,16.42,16.61c-5.83,9.43-20.09,6.04-26.11-1
					c-10.41-12.16-5.53-32.53-4.15-47.12C385.46,3270.63,389.73,3280.46,397.17,3290.1C399.17,3292.22,389.35,3279.97,397.17,3290.1
					z"/>
				<path class="st0" d="M379.6,3323.75c-4.52,14.12-16.84,25.31-32.45,25.39c-12.34,0-31.02-13.9-15.8-19.42
					c16-5.87,22.88-6.69,32.95-22.54c9.54-15.05,15.3-32.31,17.65-49.96C383.38,3279.14,385.86,3302.38,379.6,3323.75
					C377.33,3330.86,383.94,3308.89,379.6,3323.75z"/>
				<path class="st1" d="M399.63,3355.66c0.09-12.52-5.1-24.19-11.64-24.24c-6.51-0.05-11.9,11.55-11.99,24.07
					c-0.1,12.48,5.18,15.97,11.68,16.01C394.22,3371.53,399.53,3368.13,399.63,3355.66z"/>
			</g>
			<g>
				<g>
					<path class="st0" d="M185.55,3007.13c-8.06,1.1-10.76-1.12-13.95-6.36c-2.78-5.31-4.18-10.82-6.88-10.87
						c-2.26-0.19-5.88,4.73-4.76,14.21c0.57,4.59,3.34,11.11,9.83,14.78c6.45,3.71,14.39,3.01,19.97,0.27
						c11.5-6.03,15.27-13.62,18.58-20.39c2.9-7.12,4.87-14.6,4.82-25.37c-1.52,10.7-5.25,17.22-9.52,22.47
						C199.24,3000.84,193.6,3005.54,185.55,3007.13z"/>
				</g>
				<path class="st1" d="M113.38,3273.04c23.49-0.58,41.67-16.18,43.71-40.39c2.02-23.43-21.93-50.18-41.96-32.4
					c-12.13,10.67,10.39,26.8,15.2,9.98c1.75-9.47,11-5.08,14.54,0.18c4.03,6.01,4.61,14.06,3.54,21
					c-4.61,31.82-47.55,36.78-65.72,13.39c-21.88-28.08-4.22-64.84,17.64-86.03c26.08-25.24,56.19-46.03,81.26-72.28
					c28.34-29.67,32.08-70.76,32.62-110.11c-0.65-0.03-1.3-0.07-1.96-0.1c-3,25.94-6.86,53.54-18.52,77.24
					c-10.5,21.33-32.56,36.06-50.98,50.04c-39.49,29.83-87.89,70.25-88.18,106.64C54.28,3246.57,78.38,3273.88,113.38,3273.04z"/>
				<path class="st1" d="M34.21,3041.61c5.51-10.27,16.13-16.21,27.37-18.22c9.53-1.54,18.76,2.94,8.1,11.36
					c-5,5.35,1.57,18.68,8.41,13.01c6.87-6,4.32-20.88-2.13-26.49c-20.12-17.41-51.93,11.63-55.6,30.73
					c-12.42,64.59,78.77,61.38,115.97,45.18c47.02-20.47,81.49-74.12,77.55-125.64c-6.34,11.3-6.19,32.68-12.77,46.81
					c-7.67,16.54-18.81,31.44-32.18,43.83c-28.76,26.6-64.28,36.26-95.76,30.83C41.69,3087.53,20.75,3066.49,34.21,3041.61z"/>
			</g>
			<g>
				<path class="st1" d="M24.18,3152.71c9.49-17.25,46.94-25.23,53.74-24.85l0.15,1.64c-13.09,3.55-21.91,12.29-30.12,22.17
					c-2.04,2.57-3.98,5.18-5.95,7.95c-1.88,2.42-3.29,4.35-5.02,6.17c-3.32,3.66-8.23,12.8-8.84,14.37
					C27.55,3181.75,14.66,3169.98,24.18,3152.71z"/>
				<path class="st1" d="M25.99,3119.75l5.43-0.7c2.09-0.42,5.46-0.17,9.09,0.5l9.55,2.75c5.88,1.76,11.22,2.8,17.29,2.97
					c5.99,0.38,15.62-0.75,18.58-0.29c2.93,0.49-11.32,6.61-17.72,8.43c-6.34,1.59-14.13,5.64-29.79,4.5
					c-15.67-1.12-17.3-5.25-20.47-9.88c-3.4-4.69,0.04-14.5,1.21-13.05C20.34,3116.48,24.68,3120.12,25.99,3119.75z"/>
			</g>
			<g>
				<path class="st0" d="M39.47,3287.37c7.56-9.52,11.99-19.29,14.3-31.28c1.16,14.59,5.72,35.04-4.85,47.04
					c-6.13,6.95-20.46,10.11-26.13,0.6C18.5,3296.46,35.25,3291.79,39.47,3287.37C47.42,3277.36,37.43,3289.47,39.47,3287.37z"/>
				<path class="st0" d="M56.51,3321.3c-5.94-21.47-3.11-44.67-1.33-66.56c2.08,17.69,7.57,35.01,16.89,50.21
					c9.8,16,16.71,16.94,32.6,23.04c15.14,5.76-3.78,19.39-16.08,19.2C72.96,3346.85,60.83,3335.49,56.51,3321.3
					C52.39,3306.38,58.67,3328.44,56.51,3321.3z"/>
				<path class="st1" d="M60.55,3353.07c0.09-12.51-5.11-24.19-11.65-24.23c-6.52-0.07-11.89,11.54-11.99,24.06
					c-0.09,12.48,5.16,15.97,11.68,16.01C55.13,3368.96,60.45,3365.55,60.55,3353.07z"/>
			</g>
			<g>
				<path class="st0" d="M238.46,3324.99c5.18,4.28,28.64,11.99,29.97,18.36c2.34,9.48-19.64,7.77-23.86,6.33
					c-26.8-9.13-28.5-42.35-27.48-66.08C219.27,3299.37,225.96,3314.65,238.46,3324.99
					C245.03,3330.38,231.62,3319.35,238.46,3324.99z"/>
				<path class="st0" d="M249.87,3277.99c12.25,14.58,14.66,12.46,31.63,12.63c7.46,0.06,4.81,9.39,2.64,13.19
					c-6.29,10.93-20.23,14.37-31.48,9.74c-33.12-13.7-36.03-68.26-35.03-97.9C220.93,3238.59,235.29,3260.08,249.87,3277.99
					C253.96,3282.85,241.45,3267.65,249.87,3277.99z"/>
				<path class="st0" d="M195.3,3324.65c12.66-10.14,19.57-25.31,22-41.05c0.65,23.73-1.56,56.94-28.51,65.66
					c-4.2,1.37-26.22,2.74-23.75-6.69C166.49,3336.21,190.03,3328.86,195.3,3324.65C202.22,3319.11,188.65,3329.94,195.3,3324.65z"
					/>
				<path class="st0" d="M184.59,3277.5c14.87-17.69,29.37-38.96,33.04-61.85c0.54,29.65-3.03,84.16-36.36,97.35
					c-11.34,4.47-25.2,0.82-31.33-10.19c-2.11-3.86-4.61-13.22,2.84-13.17C169.75,3289.72,172.11,3291.88,184.59,3277.5
					C193.17,3267.28,180.42,3282.28,184.59,3277.5z"/>
			</g>
			<g>
				<path class="st1" d="M271.45,3117.79c-7.58-6.07-15.26-10.72-24.95-12.66c-1.82-0.38-23.8-3.06-23.92-2.83
					c-3.87,9.48,26.49,27.68,37.81,39.24c11.32,11.53,26.34,47.21,30.29,44.73C294.61,3183.79,290.38,3132.96,271.45,3117.79z"/>
				<path class="st1" d="M163.36,3116.97c7.69-5.96,15.45-10.49,25.13-12.29c1.85-0.36,23.9-2.7,23.98-2.46
					c3.72,9.53-26.93,27.28-38.41,38.66c-11.48,11.36-27.07,46.79-30.96,44.27C139.24,3182.6,144.24,3131.84,163.36,3116.97z"/>
				<path class="st1" d="M217.67,3064.34c-1.28,10.64-2.02,21.24-2.82,31.91c-0.49,5.26-0.3,8.3-3.11,13.4
					c-8.64,7.73-13.67,15.5-17.06,23.29c-4.1,8.57-5.64,17.23-5.78,25.86c-0.04,8.59,1.39,17.24,5.31,25.89
					c3.62,8.66,13.69,21.28,17.51,24.43c3.08,2.47,6.89,2.5,10,0.07c3.89-3.08,14.14-15.54,17.88-24.15
					c4.05-8.6,5.62-17.23,5.72-25.81c-0.01-8.63-1.47-17.31-5.4-25.95c-3.29-7.85-8.18-15.69-16.69-23.55
					c-2.75-5.13-2.53-8.18-2.91-13.44C219.65,3085.61,218.78,3075,217.67,3064.34z"/>
			</g>
			<path class="st1" d="M157.06,3057.31c7.03-6.94,10.68-16.43,7.05-20.09c-3.65-3.71-13.15-0.21-20.2,6.73
				c-7.08,6.94-6.06,11.87-2.42,15.55C145.11,3063.2,149.99,3064.27,157.06,3057.31z"/>
		</g>
	</g>
</g>
</svg>
